<?xml version="1.0" ?><!DOCTYPE svg PUBLIC "-//W3C//DTD SVG 1.1//EN" "http://www.w3.org/Graphics/SVG/1.1/DTD/svg11.dtd"><svg xmlns="http://www.w3.org/2000/svg" xmlns:xlink="http://www.w3.org/1999/xlink"><symbol viewBox="0 0 24 24" id="arrow-right" xmlns="http://www.w3.org/2000/svg">
    <path d="M13 6.58579L18.4142 12L13 17.4142L11.5858 16L14.5858 13H6V11H14.5858L11.5858 8L13 6.58579Z"/>
    <path fill-rule="evenodd" clip-rule="evenodd" d="M1 12C1 5.92487 5.92487 1 12 1C18.0751 1 23 5.92487 23 12C23 18.0751 18.0751 23 12 23C5.92487 23 1 18.0751 1 12ZM12 3C7.02944 3 3 7.02944 3 12C3 16.9706 7.02944 21 12 21C16.9706 21 21 16.9706 21 12C21 7.02944 16.9706 3 12 3Z"/>
</symbol><symbol id="chip" viewBox="0 0 24 24" enable-background="new 0 0 24 24" xml:space="preserve" xmlns="http://www.w3.org/2000/svg">
    <g>
        <path d="M12,0C5.3828125,0,0,5.3833008,0,12s5.3828125,12,12,12s12-5.3833008,12-12S18.6171875,0,12,0z"/>
        <path d="M23,12c0,0.5629883-0.0559082,1.1118774-0.1378784,1.6523438l-1.0681763-0.6166992   c-0.4609375-0.2666016-1-0.3359375-1.5175781-0.199707c-0.515625,0.1381836-0.9472656,0.4692383-1.2138805,0.9321289l-2,3.4638672   c-0.5507679,0.9545898-0.2226429,2.1801758,0.7314587,2.7324219l1.0698242,0.6173096   C18.0049438,21.2698975,17.0405884,21.8278809,16,22.2360229V21c0-1.1030273-0.8974609-2-2-2h-4c-1.1025391,0-2,0.8969727-2,2   v1.2360229c-1.0406494-0.4081421-2.0050659-0.9660645-2.8638916-1.6544189l1.0699463-0.6177368   c0.9541016-0.5517578,1.2822266-1.7773438,0.7314329-2.7319336l-2-3.4638672   c-0.2665892-0.4628906-0.6982298-0.7939453-1.2138548-0.9321289c-0.5175781-0.1367188-1.0556641-0.0668945-1.5175781,0.199707   l-1.0681763,0.6166992C1.0559082,13.1118774,1,12.5629883,1,12s0.0559082-1.1118774,0.1378784-1.6523438l1.0681763,0.6166992   c0.3076172,0.1777344,0.6494141,0.2685547,0.9960938,0.2685547c0.1738281,0,0.3486328-0.0229492,0.5214844-0.0688477   c0.515625-0.1381836,0.9472656-0.4692383,1.2138548-0.9321289l2-3.4638672   c0.5507936-0.9545898,0.2226686-2.1801758-0.7314329-2.7324219L5.1362305,3.418335   C5.9950562,2.7301025,6.9594116,2.1721191,8,1.7639771V3c0,1.1030273,0.8974609,2,2,2h4c1.1025391,0,2-0.8969727,2-2V1.7639771   c1.0406494,0.4081421,2.0050659,0.9660645,2.8638916,1.6544189l-1.0699463,0.6177368   c-0.9541016,0.5517578-1.2822266,1.7773438-0.7314587,2.7319336l2,3.4638672   c0.2666149,0.4628906,0.6982555,0.7939453,1.2138805,0.9321289c0.1728516,0.0458984,0.3476563,0.0688477,0.5214844,0.0688477   c0.3466797,0,0.6884766-0.0908203,0.9960938-0.2685547l1.0681763-0.6166992C22.9440918,10.8881226,23,11.4370117,23,12z"/>
        <path d="M22.6541748,9.3128662l-1.3602295,0.7852783c-0.2324219,0.1333008-0.4990234,0.1679688-0.7587891,0.1000977   c-0.2578125-0.0693359-0.4736328-0.2348633-0.6074219-0.4663086l-1.9990234-3.4638672   c-0.2763672-0.4775391-0.1113281-1.090332,0.3652344-1.3662109l1.3608398-0.7852783   C21.0955811,5.5159302,22.1473999,7.3057251,22.6541748,9.3128662z"/>
        <circle cx="12" cy="12" r="6"/>
        <circle cx="12" cy="12" r="5"/>
        <path d="M11.75,10h1.75c0.2763672,0,0.5-0.2236328,0.5-0.5S13.7763672,9,13.5,9h-1V8.5   C12.5,8.2236328,12.2763672,8,12,8s-0.5,0.2236328-0.5,0.5v0.5252686C10.6541138,9.1478271,10,9.8707275,10,10.75   c0,0.9648438,0.7851563,1.75,1.75,1.75h0.5c0.4130859,0,0.75,0.3364258,0.75,0.75S12.6630859,14,12.25,14H10.5   c-0.2763672,0-0.5,0.2236328-0.5,0.5s0.2236328,0.5,0.5,0.5h1v0.5c0,0.2763672,0.2236328,0.5,0.5,0.5s0.5-0.2236328,0.5-0.5   v-0.5252686C13.3458862,14.8521729,14,14.1292725,14,13.25c0-0.9648438-0.7851563-1.75-1.75-1.75h-0.5   c-0.4130859,0-0.75-0.3364258-0.75-0.75S11.3369141,10,11.75,10z"/>
        <path d="M15,1.4264526V3c0,0.5512695-0.4482422,1-1,1h-4C9.4482422,4,9,3.5512695,9,3V1.4264526   C9.9551392,1.1549683,10.9589844,1,12,1S14.0448608,1.1549683,15,1.4264526z"/>
        <path d="M19.6547241,19.8834229l-1.3607788-0.78479c-0.4765625-0.2763672-0.6416016-0.8891602-0.3662109-1.3666992   l2.0009766-3.4638672c0.1328125-0.2314453,0.3486328-0.3969727,0.6064453-0.4663086   c0.2607422-0.0683594,0.5273304-0.0336914,0.7587891,0.1000977l1.3602295,0.7852783   C22.1473999,16.6943359,21.0955811,18.4840698,19.6547241,19.8834229z"/>
        <path d="M4.3452759,4.1165771l1.3607788,0.78479c0.4765625,0.2763672,0.6416016,0.8891602,0.3662109,1.3666992   L4.0712891,9.7319336c-0.1328125,0.2314453-0.3486328,0.3969727-0.6064453,0.4663086   c-0.2587891,0.0693359-0.5263672,0.0336914-0.7587891-0.1000977L1.3458252,9.3128662   C1.8526001,7.3056641,2.9044189,5.5159302,4.3452759,4.1165771z"/>
        <path d="M1.3458252,14.6871338l1.3602295-0.7852783c0.2314332-0.1342773,0.4990234-0.1699219,0.7587891-0.1000977   c0.2578125,0.0693359,0.4736328,0.2348633,0.6074219,0.4663086l1.9990234,3.4638672   c0.2763672,0.4775391,0.1113281,1.090332-0.3652344,1.3662109l-1.3608398,0.7852783   C2.9044189,18.4840698,1.8526001,16.6942749,1.3458252,14.6871338z"/>
        <path d="M9,22.5735474V21c0-0.5512695,0.4482422-1,1-1h4c0.5517578,0,1,0.4487305,1,1v1.5735474   C14.0448608,22.8450317,13.0410156,23,12,23S9.9551392,22.8450317,9,22.5735474z"/>
        <linearGradient id="bSVGID_1_" gradientUnits="userSpaceOnUse" x1="12.01091" y1="12.0121613" x2="19.7220917" y2="19.7233429">
            <stop offset="0" style="stop-color:#010101;stop-opacity:0.1"/>
            <stop offset="1" style="stop-color:#010101;stop-opacity:0"/>
        </linearGradient>
        <path d="M16.2767334,7.7988892C17.3410034,8.8821411,18,10.3649292,18,12c0,3.3085938-2.6914063,6-6,6   c-1.6484375,0-3.1431274-0.6686401-4.2286377-1.748291L10.5196533,19H14c1.1025391,0,2,0.8969727,2,2v1.2360229   c1.0405884-0.4081421,2.0049438-0.9661255,2.8637695-1.6543579l-1.0698242-0.6173096   c-0.9541016-0.5522461-1.2822266-1.777832-0.7314587-2.7324219l2-3.4638672   c0.2666149-0.4628906,0.6982555-0.7939453,1.2138805-0.9321289c0.3505249-0.0922852,0.7092896-0.0825195,1.048645,0.0112305   L16.2767334,7.7988892z"/>
        <linearGradient id="bSVGID_2_" gradientUnits="userSpaceOnUse" x1="1.1248534" y1="6.9288359" x2="22.8751469" y2="17.0711651">
            <stop offset="0" style="stop-color:#FFFFFF;stop-opacity:0.2"/>
            <stop offset="1" style="stop-color:#FFFFFF;stop-opacity:0"/>
        </linearGradient>
        <path d="M12,0C5.3828125,0,0,5.3833008,0,12s5.3828125,12,12,12s12-5.3833008,12-12S18.6171875,0,12,0z"/>
    </g>
    <g/>
    <g/>
    <g/>
    <g/>
    <g/>
    <g/>
    <g/>
    <g/>
    <g/>
    <g/>
    <g/>
    <g/>
    <g/>
    <g/>
    <g/>
</symbol><symbol id="double-arrow" viewBox="0 0 709.886 709.886" style="enable-background:new 0 0 709.886 709.886" xml:space="preserve" xmlns="http://www.w3.org/2000/svg">
    <g>
        <g>
            <path d="M650.686,323.626L431.282,21.972C421.301,8.217,405.165,0,388.115,0c-11.327,0-22.16,3.529-31.316,10.195    c-23.768,17.279-29.045,50.684-11.766,74.467l196.606,270.317L345.027,625.218c-17.284,23.773-12.001,57.173,11.777,74.462    c9.198,6.677,20.035,10.206,31.342,10.206c17.029,0,33.154-8.217,43.125-21.967l219.403-301.576    C664.362,367.581,664.362,342.372,650.686,323.626z M633.803,374.039L414.379,675.635c-6.066,8.368-15.869,13.359-26.227,13.359    c-6.87,0-13.469-2.15-19.07-6.218c-14.46-10.514-17.67-30.825-7.156-45.28l201.08-276.378c2.667-3.664,2.667-8.624,0-12.283    L361.926,72.39c-10.514-14.471-7.304-34.793,7.156-45.307c5.57-4.056,12.153-6.202,19.033-6.202    c10.378,0,20.197,4.996,26.269,13.364L633.809,335.92C642.124,347.321,642.124,362.632,633.803,374.039z"/>
            <path d="M364.771,323.626L145.352,21.978C135.381,8.217,119.25,0,102.201,0C90.873,0,80.046,3.529,70.89,10.195    C47.122,27.469,41.838,60.869,59.112,84.668l196.606,270.312L59.107,625.218c-17.279,23.778-11.991,57.178,11.787,74.451    c9.193,6.677,20.03,10.206,31.337,10.206c17.034,0,33.154-8.217,43.109-21.967l219.424-301.576    C378.442,367.581,378.442,342.372,364.771,323.626z M347.883,374.039L128.438,675.641c-6.056,8.362-15.854,13.354-26.211,13.354    c-6.87,0-13.463-2.151-19.064-6.218c-14.46-10.503-17.67-30.82-7.167-45.28l201.08-276.378c2.667-3.664,2.667-8.624,0-12.283    L76,72.39c-10.508-14.476-7.292-34.798,7.173-45.312c5.57-4.051,12.147-6.196,19.033-6.196c10.373,0,20.182,4.99,26.248,13.364    L347.888,335.92C356.204,347.321,356.204,362.632,347.883,374.039z"/>
        </g>
    </g>
    <g/>
    <g/>
    <g/>
    <g/>
    <g/>
    <g/>
    <g/>
    <g/>
    <g/>
    <g/>
    <g/>
    <g/>
    <g/>
    <g/>
    <g/>
</symbol><symbol viewBox="126.445 2.281 589 589" id="facebook" xmlns="http://www.w3.org/2000/svg">
    <circle cx="420.945" cy="296.781" r="294.5"/>
    <path d="m516.704 92.677h-65.239c-38.715 0-81.777 16.283-81.777 72.402.189 19.554 0 38.281 0 59.357h-44.788v71.271h46.174v205.177h84.847v-206.531h56.002l5.067-70.117h-62.531s.14-31.191 0-40.249c0-22.177 23.076-20.907 24.464-20.907 10.981 0 32.332.032 37.813 0v-70.403z"/>
</symbol><symbol viewBox="0 0 2499.899999999999 2500" id="instagram" xmlns="http://www.w3.org/2000/svg">
    <defs>
        <radialGradient id="ea" cx="332.14" cy="2511.81" r="3263.54" gradientUnits="userSpaceOnUse">
            <stop offset=".09" stop-color="#fa8f21"/>
            <stop offset=".78" stop-color="#d82d7e"/>
        </radialGradient>
        <radialGradient id="eb" cx="1516.14" cy="2623.81" r="2572.12" gradientUnits="userSpaceOnUse">
            <stop offset=".64" stop-color="#8c3aaa" stop-opacity="0"/>
            <stop offset="1" stop-color="#8c3aaa"/>
        </radialGradient>
    </defs>
    <path d="M833.4 1250c0-230.11 186.49-416.7 416.6-416.7s416.7 186.59 416.7 416.7-186.59 416.7-416.7 416.7-416.6-186.59-416.6-416.7m-225.26 0c0 354.5 287.36 641.86 641.86 641.86s641.86-287.36 641.86-641.86S1604.5 608.14 1250 608.14 608.14 895.5 608.14 1250m1159.13-667.31a150 150 0 1 0 150.06-149.94h-.06a150.07 150.07 0 0 0-150 149.94M745 2267.47c-121.87-5.55-188.11-25.85-232.13-43-58.36-22.72-100-49.78-143.78-93.5s-70.88-85.32-93.5-143.68c-17.16-44-37.46-110.26-43-232.13-6.06-131.76-7.27-171.34-7.27-505.15s1.31-373.28 7.27-505.15c5.55-121.87 26-188 43-232.13 22.72-58.36 49.78-100 93.5-143.78s85.32-70.88 143.78-93.5c44-17.16 110.26-37.46 232.13-43 131.76-6.06 171.34-7.27 505-7.27s373.28 1.31 505.15 7.27c121.87 5.55 188 26 232.13 43 58.36 22.62 100 49.78 143.78 93.5s70.78 85.42 93.5 143.78c17.16 44 37.46 110.26 43 232.13 6.06 131.87 7.27 171.34 7.27 505.15s-1.21 373.28-7.27 505.15c-5.55 121.87-25.95 188.11-43 232.13-22.72 58.36-49.78 100-93.5 143.68s-85.42 70.78-143.78 93.5c-44 17.16-110.26 37.46-232.13 43-131.76 6.06-171.34 7.27-505.15 7.27s-373.28-1.21-505-7.27M734.65 7.57c-133.07 6.06-224 27.16-303.41 58.06C349 97.54 279.38 140.35 209.81 209.81S97.54 349 65.63 431.24c-30.9 79.46-52 170.34-58.06 303.41C1.41 867.93 0 910.54 0 1250s1.41 382.07 7.57 515.35c6.06 133.08 27.16 223.95 58.06 303.41 31.91 82.19 74.62 152 144.18 221.43S349 2402.37 431.24 2434.37c79.56 30.9 170.34 52 303.41 58.06C868 2498.49 910.54 2500 1250 2500s382.07-1.41 515.35-7.57c133.08-6.06 223.95-27.16 303.41-58.06 82.19-32 151.86-74.72 221.43-144.18s112.18-139.24 144.18-221.43c30.9-79.46 52.1-170.34 58.06-303.41 6.06-133.38 7.47-175.89 7.47-515.35s-1.41-382.07-7.47-515.35c-6.06-133.08-27.16-224-58.06-303.41-32-82.19-74.72-151.86-144.18-221.43S2150.95 97.54 2068.86 65.63c-79.56-30.9-170.44-52.1-303.41-58.06C1632.17 1.51 1589.56 0 1250.1 0S868 1.41 734.65 7.57"/>
    <path d="M833.4 1250c0-230.11 186.49-416.7 416.6-416.7s416.7 186.59 416.7 416.7-186.59 416.7-416.7 416.7-416.6-186.59-416.6-416.7m-225.26 0c0 354.5 287.36 641.86 641.86 641.86s641.86-287.36 641.86-641.86S1604.5 608.14 1250 608.14 608.14 895.5 608.14 1250m1159.13-667.31a150 150 0 1 0 150.06-149.94h-.06a150.07 150.07 0 0 0-150 149.94M745 2267.47c-121.87-5.55-188.11-25.85-232.13-43-58.36-22.72-100-49.78-143.78-93.5s-70.88-85.32-93.5-143.68c-17.16-44-37.46-110.26-43-232.13-6.06-131.76-7.27-171.34-7.27-505.15s1.31-373.28 7.27-505.15c5.55-121.87 26-188 43-232.13 22.72-58.36 49.78-100 93.5-143.78s85.32-70.88 143.78-93.5c44-17.16 110.26-37.46 232.13-43 131.76-6.06 171.34-7.27 505-7.27s373.28 1.31 505.15 7.27c121.87 5.55 188 26 232.13 43 58.36 22.62 100 49.78 143.78 93.5s70.78 85.42 93.5 143.78c17.16 44 37.46 110.26 43 232.13 6.06 131.87 7.27 171.34 7.27 505.15s-1.21 373.28-7.27 505.15c-5.55 121.87-25.95 188.11-43 232.13-22.72 58.36-49.78 100-93.5 143.68s-85.42 70.78-143.78 93.5c-44 17.16-110.26 37.46-232.13 43-131.76 6.06-171.34 7.27-505.15 7.27s-373.28-1.21-505-7.27M734.65 7.57c-133.07 6.06-224 27.16-303.41 58.06C349 97.54 279.38 140.35 209.81 209.81S97.54 349 65.63 431.24c-30.9 79.46-52 170.34-58.06 303.41C1.41 867.93 0 910.54 0 1250s1.41 382.07 7.57 515.35c6.06 133.08 27.16 223.95 58.06 303.41 31.91 82.19 74.62 152 144.18 221.43S349 2402.37 431.24 2434.37c79.56 30.9 170.34 52 303.41 58.06C868 2498.49 910.54 2500 1250 2500s382.07-1.41 515.35-7.57c133.08-6.06 223.95-27.16 303.41-58.06 82.19-32 151.86-74.72 221.43-144.18s112.18-139.24 144.18-221.43c30.9-79.46 52.1-170.34 58.06-303.41 6.06-133.38 7.47-175.89 7.47-515.35s-1.41-382.07-7.47-515.35c-6.06-133.08-27.16-224-58.06-303.41-32-82.19-74.72-151.86-144.18-221.43S2150.95 97.54 2068.86 65.63c-79.56-30.9-170.44-52.1-303.41-58.06C1632.17 1.51 1589.56 0 1250.1 0S868 1.41 734.65 7.57"/>
</symbol><symbol id="play" style="enable-background:new 0 0 100 100" viewBox="0 0 100 100" xml:space="preserve" xmlns="http://www.w3.org/2000/svg">
    <g id="fLayer_4_copy">
        <path d="M31.356,25.677l38.625,22.3c1.557,0.899,1.557,3.147,0,4.046l-38.625,22.3c-1.557,0.899-3.504-0.225-3.504-2.023V27.7   C27.852,25.902,29.798,24.778,31.356,25.677z"/>
        <path d="M69.981,47.977l-38.625-22.3c-0.233-0.134-0.474-0.21-0.716-0.259l37.341,21.559c1.557,0.899,1.557,3.147,0,4.046   l-38.625,22.3c-0.349,0.201-0.716,0.288-1.078,0.301c0.656,0.938,1.961,1.343,3.078,0.699l38.625-22.3   C71.538,51.124,71.538,48.876,69.981,47.977z"/>
        <path d="M31.356,25.677l38.625,22.3c1.557,0.899,1.557,3.147,0,4.046   l-38.625,22.3c-1.557,0.899-3.504-0.225-3.504-2.023V27.7C27.852,25.902,29.798,24.778,31.356,25.677z" style="fill:none;stroke:#000000;stroke-miterlimit:10"/>
    </g>
</symbol><symbol id="russian" viewBox="0 0 512.001 512.001" style="enable-background:new 0 0 512.001 512.001" xml:space="preserve" xmlns="http://www.w3.org/2000/svg">
    <path style="fill:#F5F5F5" d="M512,200.093H0V97.104c0-4.875,3.953-8.828,8.828-8.828h494.345c4.875,0,8.828,3.953,8.828,8.828 L512,200.093L512,200.093z"/>
    <path style="fill:#FF4B55" d="M503.172,423.725H8.828c-4.875,0-8.828-3.953-8.828-8.828V311.909h512v102.988 C512,419.773,508.047,423.725,503.172,423.725z"/>
    <rect y="200.091" style="fill:#41479B" width="512" height="111.81"/>
</symbol><symbol viewBox="0 0 48 48" id="search" xmlns="http://www.w3.org/2000/svg">
    <defs>
        <linearGradient id="h0Pg7sQDg3OAkLjbcsuKMMa" x1="13.2" x2="38.53" y1="-5.74" y2="47.28" gradientTransform="rotate(-45 24 25.809)" gradientUnits="userSpaceOnUse">
            <stop offset="0" stop-color="#f2fcff"/>
            <stop offset=".55" stop-color="#c1f3f9"/>
            <stop offset=".97" stop-color="#baccfd"/>
        </linearGradient>
        <linearGradient id="h0Pg7sQDg3OAkLjbcsuKMMb" x1="13.19" x2="38.56" y1="-5.78" y2="47.3" gradientTransform="rotate(-45 24 25.809)" gradientUnits="userSpaceOnUse">
            <stop offset="0" stop-color="#effbff"/>
            <stop offset=".55" stop-color="#b3f0f8"/>
            <stop offset=".97" stop-color="#abc1fd"/>
        </linearGradient>
        <linearGradient id="h0Pg7sQDg3OAkLjbcsuKMMc" x1="13.2" x2="38.58" y1="-5.8" y2="47.32" gradientTransform="rotate(-45 24 25.809)" gradientUnits="userSpaceOnUse">
            <stop offset="0" stop-color="#ecfbff"/>
            <stop offset=".55" stop-color="#a5edf7"/>
            <stop offset=".97" stop-color="#9bb5fc"/>
        </linearGradient>
        <linearGradient id="h0Pg7sQDg3OAkLjbcsuKMMd" x1="13.2" x2="38.6" y1="-5.82" y2="47.32" gradientTransform="rotate(-45 24 25.809)" gradientUnits="userSpaceOnUse">
            <stop offset="0" stop-color="#eafaff"/>
            <stop offset=".55" stop-color="#98ebf5"/>
            <stop offset=".97" stop-color="#8caafc"/>
        </linearGradient>
        <linearGradient id="h0Pg7sQDg3OAkLjbcsuKMMe" x1="13.21" x2="38.61" y1="-5.84" y2="47.32" gradientTransform="rotate(-45 24 25.809)" gradientUnits="userSpaceOnUse">
            <stop offset="0" stop-color="#e7f9ff"/>
            <stop offset=".55" stop-color="#8ae8f4"/>
            <stop offset=".97" stop-color="#7c9ffc"/>
        </linearGradient>
        <linearGradient id="h0Pg7sQDg3OAkLjbcsuKMMf" x1="13.22" x2="38.63" y1="-5.84" y2="47.32" gradientTransform="rotate(-45 24 25.809)" gradientUnits="userSpaceOnUse">
            <stop offset="0" stop-color="#e4f9fe"/>
            <stop offset=".55" stop-color="#7ce5f3"/>
            <stop offset=".97" stop-color="#6d93fb"/>
        </linearGradient>
        <linearGradient id="h0Pg7sQDg3OAkLjbcsuKMMg" x1="13.24" x2="38.64" y1="-5.84" y2="47.3" gradientTransform="rotate(-45 24 25.809)" gradientUnits="userSpaceOnUse">
            <stop offset="0" stop-color="#e1f8fe"/>
            <stop offset=".55" stop-color="#6ee2f2"/>
            <stop offset=".97" stop-color="#5d88fb"/>
        </linearGradient>
        <linearGradient id="h0Pg7sQDg3OAkLjbcsuKMMh" x1="13.26" x2="38.64" y1="-5.83" y2="47.29" gradientTransform="rotate(-45 24 25.809)" gradientUnits="userSpaceOnUse">
            <stop offset="0" stop-color="#dff7fe"/>
            <stop offset=".55" stop-color="#61e0f0"/>
            <stop offset=".97" stop-color="#4e7dfb"/>
        </linearGradient>
        <linearGradient id="h0Pg7sQDg3OAkLjbcsuKMMi" x1="13.28" x2="38.64" y1="-5.82" y2="47.26" gradientTransform="rotate(-45 24 25.809)" gradientUnits="userSpaceOnUse">
            <stop offset="0" stop-color="#dcf7fe"/>
            <stop offset=".55" stop-color="#53ddef"/>
            <stop offset=".97" stop-color="#3e71fa"/>
        </linearGradient>
        <linearGradient id="h0Pg7sQDg3OAkLjbcsuKMMj" x1="13.31" x2="38.64" y1="-5.79" y2="47.23" gradientTransform="rotate(-45 24 25.809)" gradientUnits="userSpaceOnUse">
            <stop offset="0" stop-color="#d9f6fe"/>
            <stop offset=".55" stop-color="#45daee"/>
            <stop offset=".97" stop-color="#2f66fa"/>
        </linearGradient>
        <linearGradient id="h0Pg7sQDg3OAkLjbcsuKMMk" x1="16.57" x2="32.71" y1="5.74" y2="26.67" gradientTransform="rotate(-45 24 25.809)" gradientUnits="userSpaceOnUse">
            <stop offset="0" stop-color="#f8fdff"/>
            <stop offset="1" stop-color="#e2fbff"/>
        </linearGradient>
        <linearGradient id="h0Pg7sQDg3OAkLjbcsuKMMl" x1="17.21" x2="32.5" y1="6.38" y2="26.56" gradientTransform="rotate(-45 24 25.809)" gradientUnits="userSpaceOnUse">
            <stop offset="0" stop-color="#f6fdff"/>
            <stop offset="1" stop-color="#dcfaff"/>
        </linearGradient>
        <linearGradient id="h0Pg7sQDg3OAkLjbcsuKMMm" x1="17.82" x2="32.28" y1="7.01" y2="26.43" gradientTransform="rotate(-45 24 25.809)" gradientUnits="userSpaceOnUse">
            <stop offset="0" stop-color="#f5fcff"/>
            <stop offset="1" stop-color="#d5f9ff"/>
        </linearGradient>
        <linearGradient id="h0Pg7sQDg3OAkLjbcsuKMMn" x1="18.4" x2="32.06" y1="7.62" y2="26.3" gradientTransform="rotate(-45 24 25.809)" gradientUnits="userSpaceOnUse">
            <stop offset="0" stop-color="#f3fcff"/>
            <stop offset="1" stop-color="#cff9ff"/>
        </linearGradient>
        <linearGradient id="h0Pg7sQDg3OAkLjbcsuKMMo" x1="18.95" x2="31.84" y1="8.23" y2="26.16" gradientTransform="rotate(-45 24 25.809)" gradientUnits="userSpaceOnUse">
            <stop offset="0" stop-color="#f2fcff"/>
            <stop offset="1" stop-color="#c8f8ff"/>
        </linearGradient>
        <linearGradient id="h0Pg7sQDg3OAkLjbcsuKMMp" x1="19.47" x2="31.62" y1="8.81" y2="26" gradientTransform="rotate(-45 24 25.809)" gradientUnits="userSpaceOnUse">
            <stop offset="0" stop-color="#f0fbfe"/>
            <stop offset="1" stop-color="#c2f7ff"/>
        </linearGradient>
        <linearGradient id="h0Pg7sQDg3OAkLjbcsuKMMq" x1="19.97" x2="31.39" y1="9.38" y2="25.84" gradientTransform="rotate(-45 24 25.809)" gradientUnits="userSpaceOnUse">
            <stop offset="0" stop-color="#effbfe"/>
            <stop offset="1" stop-color="#bbf6ff"/>
        </linearGradient>
        <linearGradient id="h0Pg7sQDg3OAkLjbcsuKMMr" x1="20.44" x2="31.16" y1="9.93" y2="25.66" gradientTransform="rotate(-45 24 25.809)" gradientUnits="userSpaceOnUse">
            <stop offset="0" stop-color="#edfbfe"/>
            <stop offset="1" stop-color="#b5f6ff"/>
        </linearGradient>
        <linearGradient id="h0Pg7sQDg3OAkLjbcsuKMMs" x1="20.89" x2="30.93" y1="10.47" y2="25.47" gradientTransform="rotate(-45 24 25.809)" gradientUnits="userSpaceOnUse">
            <stop offset="0" stop-color="#ecfafe"/>
            <stop offset="1" stop-color="#aef5ff"/>
        </linearGradient>
        <linearGradient id="h0Pg7sQDg3OAkLjbcsuKMMt" x1="21.31" x2="30.7" y1="10.99" y2="25.27" gradientTransform="rotate(-45 24 25.809)" gradientUnits="userSpaceOnUse">
            <stop offset="0" stop-color="#eafafe"/>
            <stop offset="1" stop-color="#a8f4ff"/>
        </linearGradient>
    </defs>
    <path d="m29.26,8.08c-6.03-6.03-15.91-5.85-21.71.52-5.13,5.64-5.14,14.49-.03,20.14,4.49,4.96,11.42,6.18,17.13,3.68.87-.38,1.88-.21,2.55.46l10.16,10.16c1.48,1.48,3.88,1.72,5.49.39,1.85-1.53,1.95-4.27.29-5.92l-10.28-10.28c-.67-.67-.84-1.67-.46-2.53,2.4-5.49,1.37-12.12-3.13-16.61Z"/>
    <path d="m29.1,8.24c-5.94-5.94-15.67-5.77-21.39.51-5.05,5.54-5.08,14.24-.06,19.81,4.45,4.95,11.36,6.14,17.02,3.61.87-.39,1.9-.22,2.58.46l10.22,10.22c1.39,1.39,3.65,1.62,5.17.38,1.76-1.44,1.85-4.04.29-5.6l-10.34-10.34c-.68-.68-.85-1.7-.46-2.58,2.42-5.43,1.42-12.01-3.03-16.46Z"/>
    <path d="m28.95,8.4c-5.85-5.85-15.43-5.68-21.06.5-4.96,5.44-5.01,13.99-.1,19.48,4.41,4.93,11.3,6.1,16.9,3.53.88-.41,1.92-.23,2.61.46l10.28,10.28c1.31,1.31,3.42,1.53,4.86.37,1.67-1.35,1.76-3.81.28-5.28l-10.39-10.39c-.69-.69-.86-1.74-.45-2.63,2.45-5.36,1.48-11.9-2.94-16.31Z"/>
    <path d="m28.79,8.56c-5.76-5.76-15.19-5.59-20.73.49-4.88,5.35-4.94,13.74-.13,19.15,4.37,4.92,11.25,6.07,16.79,3.46.89-.42,1.95-.24,2.64.46l10.34,10.34c1.22,1.22,3.2,1.44,4.54.36,1.58-1.26,1.67-3.57.28-4.96l-10.44-10.44c-.71-.71-.86-1.77-.44-2.68,2.48-5.29,1.53-11.79-2.85-16.16Z"/>
    <path d="m28.63,8.71c-5.66-5.66-14.95-5.51-20.41.47-4.8,5.25-4.87,13.5-.16,18.82,4.33,4.91,11.19,6.03,16.68,3.38.9-.44,1.97-.25,2.68.46l10.39,10.39c1.13,1.13,2.97,1.34,4.23.35,1.48-1.18,1.58-3.34.28-4.64l-10.49-10.49c-.72-.72-.87-1.81-.43-2.73,2.5-5.23,1.58-11.68-2.75-16.02Z"/>
    <path d="m28.48,8.87c-5.57-5.57-14.71-5.42-20.08.46-4.71,5.15-4.8,13.25-.2,18.5,4.29,4.9,11.13,6,16.57,3.31.9-.45,2-.26,2.71.46l10.45,10.45c1.05,1.05,2.74,1.25,3.91.34,1.39-1.09,1.48-3.11.27-4.32l-10.55-10.55c-.73-.73-.88-1.84-.42-2.77,2.53-5.16,1.64-11.57-2.66-15.87Z"/>
    <path d="m28.32,9.03c-5.48-5.48-14.47-5.33-19.76.45-4.63,5.06-4.73,13-.23,18.17,4.25,4.89,11.07,5.96,16.46,3.23.91-.46,2.02-.27,2.74.46l10.51,10.51c.96.96,2.52,1.16,3.59.32,1.3-1,1.39-2.88.27-4l-10.6-10.6c-.75-.75-.89-1.88-.42-2.82,2.54-5.1,1.69-11.46-2.57-15.72Z"/>
    <path d="m28.16,9.18c-5.39-5.39-14.22-5.25-19.43.44-4.54,4.96-4.66,12.75-.27,17.84,4.21,4.88,11.01,5.92,16.34,3.16.92-.48,2.05-.27,2.78.46l10.57,10.57c.88.88,2.29,1.06,3.28.31,1.21-.92,1.3-2.65.26-3.69l-10.65-10.65c-.76-.76-.9-1.91-.41-2.87,2.56-5.04,1.74-11.35-2.47-15.57Z"/>
    <path d="m28,9.34c-5.3-5.3-13.98-5.16-19.11.42-4.46,4.86-4.6,12.5-.3,17.51,4.18,4.87,10.95,5.89,16.23,3.08.92-.49,2.07-.28,2.81.46l10.62,10.62c.79.79,2.07.97,2.96.3,1.12-.83,1.21-2.42.26-3.37l-10.71-10.71c-.77-.77-.9-1.95-.4-2.92,2.58-4.97,1.8-11.24-2.38-15.42Z"/>
    <path d="m27.85,9.5c-5.21-5.21-13.74-5.07-18.78.41-4.38,4.77-4.53,12.26-.33,17.18s10.89,5.85,16.12,3.01c.93-.51,2.09-.29,2.84.46l10.68,10.68c.7.7,1.84.88,2.65.29,1.03-.74,1.12-2.19.26-3.05l-10.76-10.76c-.79-.79-.91-1.98-.39-2.97,2.6-4.91,1.85-11.13-2.29-15.27Z"/>
    <g>
        <circle cx="18.65" cy="18.69" r="11"/>
        <circle cx="18.65" cy="18.69" r="10.67"/>
        <circle cx="18.65" cy="18.69" r="10.33"/>
        <circle cx="18.65" cy="18.69" r="10"/>
        <circle cx="18.65" cy="18.69" r="9.67"/>
        <circle cx="18.65" cy="18.69" r="9.33"/>
        <circle cx="18.65" cy="18.69" r="9"/>
        <circle cx="18.65" cy="18.69" r="8.67"/>
        <circle cx="18.65" cy="18.69" r="8.33"/>
        <circle cx="18.65" cy="18.69" r="8"/>
    </g>
</symbol><symbol viewBox="0 0 64 64" id="slot" xmlns="http://www.w3.org/2000/svg">
    <g id="ia"/>
    <g id="ib"/>
    <g id="ic"/>
    <g id="id"/>
    <g id="ie"/>
    <g id="if"/>
    <g id="ig"/>
    <g id="ih"/>
    <g id="ii"/>
    <g id="ij"/>
    <g id="ik"/>
    <g id="il"/>
    <g id="im"/>
    <g id="in"/>
    <g id="io"/>
    <g id="ip"/>
    <g id="iq"/>
    <g id="ir"/>
    <g id="is"/>
    <g id="it"/>
    <g id="iu"/>
    <g id="iv"/>
    <g id="iw"/>
    <g id="ix"/>
    <g id="iy"/>
    <g id="ia`"/>
    <g id="iaa"/>
    <g id="iab"/>
    <g id="iac"/>
    <g id="iad"/>
    <g id="iae"/>
    <g id="iaf"/>
    <g id="iag"/>
    <g id="iah"/>
    <g id="iai"/>
    <g id="iaj"/>
    <g id="iak"/>
    <g id="ial"/>
    <g id="iam"/>
    <g id="ian"/>
    <g id="iao"/>
    <g id="iap"/>
    <g id="iaq">
        <path d="M46.09,35.65l-2.52,6.8,2.52,7.29h2.17c1.05,0,1.9-.85,1.9-1.9v-10.29c0-1.05-.85-1.9-1.9-1.9h-2.17Z" fill-rule="evenodd"/>
        <path d="M46.09,30.53v26.57c0,1.05-.85,1.9-1.9,1.9H7.78c-1.05,0-1.9-.85-1.9-1.9V30.53H46.09Z" fill-rule="evenodd"/>
        <path d="M5.88,30.53v4.45c0,1.42,1.14,2.56,2.56,2.56H43.53c1.42,0,2.56-1.14,2.56-2.56v-4.45H5.88Z" fill-rule="evenodd"/>
        <path d="M8.44,5H43.53c1.42,0,2.56,1.14,2.56,2.56V30.53c0,1.41-1.14,2.55-2.56,2.55H8.44c-1.42,0-2.56-1.14-2.56-2.55V7.56c0-1.42,1.14-2.56,2.56-2.56Z" fill-rule="evenodd"/>
        <path d="M46.09,35.65h0c.96,.1,1.71,.91,1.71,1.9v10.29c0,.99-.75,1.8-1.71,1.89h2.17c1.05,.01,1.9-.84,1.9-1.89v-10.29c0-1.05-.85-1.9-1.9-1.9h-2.17Z" fill-rule="evenodd"/>
        <path d="M43.95,30.53v26.57c0,1.05-.85,1.9-1.9,1.9h2.14c1.05,0,1.9-.85,1.9-1.9V30.53h-2.14Z" fill-rule="evenodd"/>
        <path d="M31.56,8.78l-2.77,9.86,2.77,10.67h11.16V8.78h-11.16Zm-22.31,0V29.31h11.16l3.62-6.98-3.62-13.55H9.25Z" fill-rule="evenodd"/>
        <rect height="20.53" width="11.16" x="20.41" y="8.78"/>
        <path d="M55.84,25.97c1.26,0,2.28,1.02,2.28,2.28v6.01c0,1.26-1.02,2.27-2.28,2.27s-2.28-1.01-2.28-2.27v-6.01c0-1.26,1.02-2.28,2.28-2.28Z" fill-rule="evenodd"/>
        <path d="M12.7,50.94h10.2c1.1,0,1.98,.88,1.98,1.98s-.88,1.97-1.98,1.97H12.7c-1.1,0-1.98-.88-1.98-1.97s.88-1.98,1.98-1.98Z" fill-rule="evenodd"/>
        <path d="M19.62,50.94c1.1,0,1.98,.88,1.98,1.98s-.88,1.97-1.98,1.97h3.27c1.1,0,1.98-.88,1.98-1.97s-.88-1.98-1.98-1.98h-3.27Z" fill-rule="evenodd"/>
        <path d="M41.4,5c1.42,0,2.56,1.14,2.56,2.56v25.49c1.22-.2,2.14-1.25,2.14-2.52V7.56c0-1.42-1.14-2.56-2.56-2.56h-2.14Z" fill-rule="evenodd"/>
        <path d="M10.73,33.08v11.81c0,1.26,1.01,2.28,2.28,2.28h9.59c1.26,0,2.28-1.02,2.28-2.28v-11.81H10.73Z" fill-rule="evenodd"/>
        <rect height="4.46" width="14.15" x="10.73" y="33.08"/>
        <path d="M47.09,7.56c0-1.96-1.6-3.56-3.56-3.56H8.44c-1.96,0-3.56,1.6-3.56,3.56V57.1c0,1.6,1.3,2.9,2.9,2.9H44.19c1.6,0,2.9-1.3,2.9-2.9v-6.36h1.17c1.6,0,2.9-1.3,2.9-2.9v-2.73h2.35c1.84,0,3.34-1.49,3.34-3.33v-4.45c1.31-.43,2.28-1.62,2.28-3.07v-6.01c0-1.81-1.47-3.28-3.28-3.28s-3.28,1.47-3.28,3.28v6.01c0,1.45,.97,2.64,2.28,3.07v4.45c0,.73-.6,1.33-1.34,1.33h-2.35v-5.56c0-1.6-1.3-2.9-2.9-2.9h-1.17V7.56Zm7.48,20.69c0-.71,.57-1.28,1.28-1.28s1.28,.57,1.28,1.28v6.01c0,.71-.56,1.27-1.28,1.27s-1.28-.56-1.28-1.27v-6.01ZM6.88,7.56c0-.86,.7-1.56,1.56-1.56H43.53c.86,0,1.56,.7,1.56,1.56V30.53c0,.85-.7,1.55-1.56,1.55H8.44c-.86,0-1.56-.7-1.56-1.55V7.56Zm4.85,26.52h12.15v10.81c0,.71-.57,1.28-1.28,1.28H13c-.7,0-1.28-.57-1.28-1.28v-10.81Zm33.37,23.02c0,.5-.41,.9-.9,.9H7.78c-.5,0-.9-.4-.9-.9v-23.42c.48,.24,.99,.4,1.56,.4h1.29v10.81c0,1.81,1.47,3.28,3.28,3.28h9.59c1.81,0,3.28-1.47,3.28-3.28v-10.81h17.66c.57,0,1.08-.16,1.56-.4v23.42Zm3.17-20.45c.5,0,.9,.4,.9,.9v10.29c0,.5-.4,.9-.9,.9h-1.17v-12.09h1.17Z"/>
        <path d="M9.25,30.31H42.72c.55,0,1-.45,1-1V8.78c0-.55-.45-1-1-1H9.25c-.55,0-1,.45-1,1V29.31c0,.55,.45,1,1,1Zm32.47-2h-9.16V9.78h9.16V28.31ZM30.56,9.78V28.31h-9.16V9.78h9.16Zm-20.31,0h9.16V28.31H10.25V9.78Z"/>
        <path d="M17.47,15.71c-.15-.38-.52-.62-.93-.62h-4.16c-.55,0-1,.45-1,1s.45,1,1,1h2.08c-.8,1.2-1.64,2.94-1.64,4.9,0,.55,.45,1,1,1s1-.45,1-1c0-2.77,2.39-5.16,2.42-5.19,.29-.28,.38-.72,.23-1.09Z"/>
        <path d="M23.91,17.09h2.08c-.8,1.2-1.64,2.94-1.64,4.9,0,.55,.45,1,1,1s1-.45,1-1c0-2.77,2.39-5.16,2.42-5.19,.29-.28,.38-.72,.23-1.09-.15-.38-.52-.62-.93-.62h-4.16c-.55,0-1,.45-1,1s.45,1,1,1Z"/>
        <path d="M35.42,17.09h2.08c-.8,1.2-1.64,2.94-1.64,4.9,0,.55,.45,1,1,1s1-.45,1-1c0-2.77,2.4-5.16,2.42-5.19,.29-.28,.38-.72,.23-1.09-.15-.38-.52-.62-.93-.62h-4.16c-.55,0-1,.45-1,1s.45,1,1,1Z"/>
        <path d="M22.9,49.94H12.7c-1.64,0-2.98,1.34-2.98,2.98s1.33,2.97,2.98,2.97h10.2c1.64,0,2.98-1.33,2.98-2.97s-1.33-2.98-2.98-2.98Zm0,3.95H12.7c-.54,0-.98-.44-.98-.97s.43-.98,.98-.98h10.2c.55,0,.98,.43,.98,.98s-.44,.97-.98,.97Z"/>
        <path d="M21.44,42.43c.55,0,1-.45,1-1v-2.61c0-.55-.45-1-1-1s-1,.45-1,1v2.61c0,.55,.45,1,1,1Z"/>
        <path d="M33.71,49.52h6.54c.55,0,1-.45,1-1s-.45-1-1-1h-6.54c-.55,0-1,.45-1,1s.45,1,1,1Z"/>
        <path d="M32.89,51.66l-.88,1.52c-.28,.48-.11,1.09,.37,1.37,.16,.09,.33,.13,.5,.13,.35,0,.68-.18,.87-.5l.88-1.52c.28-.48,.11-1.09-.37-1.37-.48-.28-1.09-.11-1.37,.37Z"/>
        <path d="M36.29,51.66l-.88,1.52c-.28,.48-.11,1.09,.37,1.37,.16,.09,.33,.13,.5,.13,.35,0,.68-.18,.87-.5l.88-1.52c.28-.48,.11-1.09-.37-1.37-.48-.28-1.09-.11-1.37,.37Z"/>
        <path d="M39.69,51.66l-.88,1.52c-.28,.48-.11,1.09,.37,1.37,.16,.09,.33,.13,.5,.13,.35,0,.68-.18,.87-.5l.88-1.52c.28-.48,.11-1.09-.37-1.37-.48-.28-1.09-.11-1.37,.37Z"/>
    </g>
    <g id="iar"/>
    <g id="ias"/>
    <g id="iat"/>
    <g id="iau"/>
    <g id="iav"/>
    <g id="iaw"/>
    <g id="iax"/>
</symbol><symbol id="telegram" viewBox="0 0 240 240" xmlns="http://www.w3.org/2000/svg">
    <style>.jst0{fill:url(#jpath2995-1-0_1_)}.jst1{fill:#c8daea}.jst2{fill:#a9c9dd}.jst3{fill:url(#jpath2991_1_)}</style>
    <linearGradient id="jpath2995-1-0_1_" gradientUnits="userSpaceOnUse" x1="-683.305" y1="534.845" x2="-693.305" y2="511.512" gradientTransform="matrix(6 0 0 -6 4255 3247)">
        <stop offset="0" stop-color="#37aee2"/>
        <stop offset="1" stop-color="#1e96c8"/>
    </linearGradient>
    <path id="jpath2995-1-0" class="jst0" d="M240 120c0 66.3-53.7 120-120 120S0 186.3 0 120 53.7 0 120 0s120 53.7 120 120z"/>
    <path id="jpath2993" class="jst1" d="M98 175c-3.9 0-3.2-1.5-4.6-5.2L82 132.2 152.8 88l8.3 2.2-6.9 18.8L98 175z"/>
    <path id="jpath2989" class="jst2" d="M98 175c3 0 4.3-1.4 6-3 2.6-2.5 36-35 36-35l-20.5-5-19 12-2.5 30v1z"/>
    <linearGradient id="jpath2991_1_" gradientUnits="userSpaceOnUse" x1="128.991" y1="118.245" x2="153.991" y2="78.245" gradientTransform="matrix(1 0 0 -1 0 242)">
        <stop offset="0" stop-color="#eff7fc"/>
        <stop offset="1" stop-color="#fff"/>
    </linearGradient>
    <path id="jpath2991" class="jst3" d="M100 144.4l48.4 35.7c5.5 3 9.5 1.5 10.9-5.1L179 82.2c2-8.1-3.1-11.7-8.4-9.3L55 117.5c-7.9 3.2-7.8 7.6-1.4 9.5l29.7 9.3L152 93c3.2-2 6.2-.9 3.8 1.3L100 144.4z"/>
</symbol><symbol clip-rule="evenodd" fill-rule="evenodd" stroke-linejoin="round" stroke-miterlimit="2" viewBox="-89.00934757 -46.8841404 643.93723344 446.8841404" id="twitter" xmlns="http://www.w3.org/2000/svg">
    <path d="m154.729 400c185.669 0 287.205-153.876 287.205-287.312 0-4.37-.089-8.72-.286-13.052a205.304 205.304 0 0 0 50.352-52.29c-18.087 8.044-37.55 13.458-57.968 15.899 20.841-12.501 36.84-32.278 44.389-55.852a202.42 202.42 0 0 1 -64.098 24.511c-18.42-19.628-44.644-31.904-73.682-31.904-55.744 0-100.948 45.222-100.948 100.965 0 7.925.887 15.631 2.619 23.025-83.895-4.223-158.287-44.405-208.074-105.504a100.739 100.739 0 0 0 -13.668 50.754c0 35.034 17.82 65.961 44.92 84.055a100.172 100.172 0 0 1 -45.716-12.63c-.015.424-.015.837-.015 1.29 0 48.903 34.794 89.734 80.982 98.986a101.036 101.036 0 0 1 -26.617 3.553c-6.493 0-12.821-.639-18.971-1.82 12.851 40.122 50.115 69.319 94.296 70.135-34.549 27.089-78.07 43.224-125.371 43.224a204.9 204.9 0 0 1 -24.078-1.399c44.674 28.645 97.72 45.359 154.734 45.359" fill-rule="nonzero"/>
</symbol><symbol viewBox="0 0 64 64" id="win" xmlns="http://www.w3.org/2000/svg">
    <g id="la"/>
    <g id="lb"/>
    <g id="lc"/>
    <g id="ld"/>
    <g id="le"/>
    <g id="lf"/>
    <g id="lg"/>
    <g id="lh"/>
    <g id="li"/>
    <g id="lj"/>
    <g id="lk"/>
    <g id="ll"/>
    <g id="lm"/>
    <g id="ln">
        <rect height="23.53" rx="2.17" ry="2.17" width="54" x="5" y="27.02"/>
        <path d="M40.57,27.02l1.76,1.8-.48,3.27c-.12,.84,.75,1.48,1.51,1.1l2.96-1.46,2.96,1.46c.76,.38,1.63-.26,1.51-1.1l-.48-3.27,1.76-1.8h-11.5Zm-16.61,0l-.17,1.18c-.17,1.2,1.07,2.1,2.15,1.56l3.71-1.83,3.71,1.83c1.08,.54,2.33-.36,2.15-1.56l-.17-1.18h-11.37Zm-16.74,0l1.76,1.8-.48,3.27c-.12,.84,.75,1.47,1.51,1.1l2.96-1.46,2.96,1.46c.76,.38,1.63-.26,1.51-1.1l-.48-3.27,1.76-1.8H7.23Z" fill-rule="evenodd"/>
        <path d="M33.33,14.26l1.92,3.66,4.08,.7c1.19,.2,1.67,1.66,.82,2.53l-2.89,2.96,.6,4.09c.18,1.2-1.07,2.1-2.15,1.56l-3.71-1.83-3.71,1.83c-1.09,.54-2.33-.36-2.15-1.56l.6-4.09-2.89-2.96c-.85-.87-.37-2.33,.82-2.53l4.08-.7,1.92-3.66c.56-1.07,2.1-1.07,2.66,0Z" fill-rule="evenodd"/>
        <path d="M16.26,21.2l1.53,2.92,3.25,.55c.84,.14,1.17,1.17,.58,1.77l-2.31,2.36,.48,3.27c.12,.84-.75,1.47-1.51,1.1l-2.96-1.46-2.96,1.46c-.76,.38-1.63-.26-1.51-1.1l.48-3.27-2.31-2.36c-.59-.61-.26-1.63,.58-1.77l3.25-.55,1.53-2.92c.39-.75,1.47-.75,1.86,0Z" fill-rule="evenodd"/>
        <path d="M49.61,21.2l1.53,2.92,3.25,.55c.84,.14,1.17,1.17,.58,1.77l-2.31,2.36,.48,3.27c.12,.84-.75,1.47-1.51,1.1l-2.96-1.46-2.96,1.46c-.76,.38-1.63-.26-1.51-1.1l.48-3.27-2.31-2.36c-.59-.61-.26-1.63,.58-1.77l3.25-.55,1.53-2.92c.39-.75,1.47-.75,1.86,0Z" fill-rule="evenodd"/>
        <path d="M53.8,27.02c1.2,0,2.17,.97,2.17,2.17v19.19c0,1.2-.97,2.17-2.17,2.17h3.03c1.2,0,2.17-.97,2.17-2.17V29.18c0-1.2-.97-2.17-2.17-2.17h-3.03Z" fill-rule="evenodd"/>
        <path d="M48.67,20.64c-.39,0-.75,.22-.93,.56l-.35,.66,1.18,2.26,3.26,.56c.84,.14,1.17,1.17,.58,1.77l-2.31,2.36,.48,3.27c.02,.18,0,.37-.07,.54l1.12,.56c.76,.38,1.63-.26,1.51-1.1l-.48-3.27,2.31-2.36c.59-.61,.26-1.63-.58-1.77l-3.26-.56-1.53-2.92c-.18-.35-.54-.56-.93-.56Zm-33.35,0c-.39,0-.75,.22-.93,.56l-.35,.66,1.18,2.26,3.26,.56c.84,.14,1.17,1.17,.58,1.77l-2.31,2.36,.48,3.27c.02,.18,0,.37-.07,.54l1.12,.56c.76,.38,1.63-.26,1.51-1.1l-.48-3.27,2.31-2.36c.59-.61,.26-1.63-.58-1.77l-3.26-.56-1.53-2.92c-.18-.35-.54-.56-.93-.56Zm16.44-7.17c-.44,.08-.82,.34-1.05,.73,.02,.02,.03,.04,.05,.06l1.92,3.66,4.08,.69c1.19,.2,1.67,1.66,.82,2.53l-2.89,2.96,.6,4.09c.06,.43-.07,.86-.35,1.19l.76,.38c1.08,.54,2.33-.36,2.15-1.56l-.6-4.09,2.89-2.96c.85-.87,.37-2.33-.82-2.53l-4.08-.69-1.92-3.66c-.3-.57-.93-.89-1.56-.79Z" fill-rule="evenodd"/>
        <path d="M56.83,26.02h-.62c.01-.1,.06-.19,.06-.29,0-1-.72-1.86-1.71-2.02l-2.77-.47-1.3-2.49h0c-.36-.68-1.05-1.1-1.82-1.1s-1.46,.42-1.82,1.1l-1.3,2.49-2.77,.47c-.99,.17-1.71,1.02-1.71,2.02,0,.1,.04,.2,.06,.29h-2.59l-.23-1.57,2.54-2.6c.46-.47,.71-1.09,.71-1.75,0-1.22-.88-2.26-2.08-2.46l-3.59-.61-1.69-3.22c-.43-.83-1.28-1.34-2.22-1.34s-1.78,.51-2.22,1.34l-1.69,3.22-3.59,.61c-1.21,.21-2.08,1.24-2.08,2.47,0,.66,.25,1.28,.71,1.75l2.54,2.6-.23,1.57h-2.59c.01-.1,.06-.19,.06-.29,0-1-.72-1.86-1.71-2.02l-2.77-.47-1.3-2.49c-.36-.68-1.05-1.1-1.82-1.1s-1.46,.42-1.82,1.1l-1.3,2.49-2.77,.47c-.99,.17-1.71,1.02-1.71,2.02,0,.1,.04,.2,.06,.29h-.62c-1.75,0-3.17,1.42-3.17,3.17v19.19c0,1.75,1.42,3.17,3.17,3.17H56.83c1.75,0,3.17-1.42,3.17-3.17V29.18c0-1.75-1.42-3.17-3.17-3.17Zm-10.46-.9c.31-.05,.57-.24,.72-.52l1.58-2.95s.04,.01,.05,.03l1.53,2.92c.15,.28,.41,.47,.72,.52l3.28,.64-.54,.55h0l-1.77,1.81c-.22,.22-.32,.53-.27,.84l.4,3.32-2.96-1.46c-.14-.07-.29-.1-.44-.1s-.3,.03-.44,.1l-3.04,1.41,.48-3.27c.05-.31-.06-.62-.27-.84l-2.28-2.45,3.25-.55Zm-21.81-4.67c-.09-.09-.14-.22-.14-.35,0-.24,.18-.45,.42-.49l4.08-.7c.31-.05,.57-.25,.72-.52l1.92-3.66c.17-.33,.71-.33,.89,0l1.92,3.66c.15,.28,.41,.47,.72,.52l4.08,.7c.24,.04,.42,.25,.42,.49,0,.13-.05,.26-.14,.35l-2.89,2.96c-.22,.22-.32,.54-.27,.84l.6,4.17c0,.35-.41,.61-.73,.45l-3.71-1.83c-.14-.07-.29-.1-.44-.1s-.3,.03-.44,.1l-3.71,1.84c-.3,.15-.72-.08-.72-.52l.6-4.09c.05-.31-.06-.62-.27-.84l-2.89-2.96Zm-11.54,4.67c.31-.05,.57-.25,.72-.52l1.58-2.95s.04,.01,.05,.03h0l1.53,2.93c.15,.28,.41,.47,.72,.52l3.28,.64-2.31,2.36c-.22,.22-.32,.54-.27,.84l.4,3.32-2.96-1.46c-.14-.07-.29-.1-.44-.1s-.3,.03-.44,.1l-3.03,1.41,.48-3.27c.05-.31-.06-.62-.27-.84l-2.28-2.45,3.25-.55Zm44.97,23.26c0,.64-.52,1.17-1.17,1.17H7.17c-.64,0-1.17-.52-1.17-1.17V29.18c0-.64,.52-1.17,1.17-1.17h1.99l1.12,1.15-.41,2.77c-.02,.1-.02,.21-.02,.31,0,1.13,.92,2.05,2.05,2.05,.32,0,.63-.07,.91-.21l2.52-1.25,2.51,1.24c.28,.14,.6,.21,.91,.21,1.13,0,2.05-.92,2.05-2.05,0-.1,0-.19-.02-.3l-.41-2.78,1.12-1.15h3.66v.04c-.02,.12-.03,.24-.03,.36,0,1.38,1.12,2.5,2.5,2.5,.39,0,.77-.09,1.11-.26l3.26-1.61,3.26,1.61c.34,.17,.73,.26,1.11,.26,1.38,0,2.5-1.12,2.5-2.5,0-.12,0-.24-.03-.36v-.03h3.66l1.12,1.15-.41,2.79c-.01,.09-.02,.19-.02,.29,0,1.13,.92,2.05,2.05,2.05,.32,0,.63-.07,.91-.21l2.52-1.25,2.51,1.24c.28,.14,.6,.21,.91,.21,1.13,0,2.05-.92,2.05-2.05,0-.1,0-.21-.02-.3l-.41-2.78,1.12-1.15h1.99c.64,0,1.17,.52,1.17,1.17v19.19Z"/>
        <path d="M18.38,36.46c-.55,0-1,.45-1,1v2.96l-1.24-1.37c-.38-.42-1.11-.42-1.48,0l-1.24,1.37v-2.96c0-.55-.45-1-1-1s-1,.45-1,1v5.56c0,.41,.25,.79,.64,.93,.39,.15,.82,.04,1.1-.26l2.24-2.48,2.24,2.48c.28,.31,.72,.41,1.1,.26,.39-.15,.64-.52,.64-.93v-5.56c0-.55-.45-1-1-1Z"/>
        <path d="M21.73,36.46c-.55,0-1,.45-1,1v5.56c0,.55,.45,1,1,1s1-.45,1-1v-5.56c0-.55-.45-1-1-1Z"/>
        <path d="M26.09,43.01v-2.77l2.81,3.41c.26,.32,.7,.45,1.11,.31,.4-.14,.66-.52,.66-.94v-5.56c0-.55-.45-1-1-1s-1,.45-1,1v2.77l-2.81-3.41c-.27-.33-.71-.45-1.11-.31-.4,.14-.66,.52-.66,.94v5.56c0,.55,.45,1,1,1s1-.45,1-1Z"/>
        <path d="M33.03,44.01c.55,0,1-.45,1-1v-2.77l2.81,3.41c.26,.32,.7,.45,1.11,.31,.4-.14,.66-.52,.66-.94v-5.56c0-.55-.45-1-1-1s-1,.45-1,1v2.77l-2.81-3.41c-.27-.33-.71-.45-1.11-.31-.4,.14-.66,.52-.66,.94v5.56c0,.55,.45,1,1,1Z"/>
        <path d="M43.82,38.46c.55,0,1-.45,1-1s-.45-1-1-1h-2.85c-.55,0-1,.45-1,1v5.56c0,.55,.45,1,1,1h2.86c.55,0,1-.44,1-.99,0-.55-.45-1-1-1h-1.86v-.78h1.85c.55,0,1-.45,1-1s-.45-1-1-1h-1.86v-.78h1.85Z"/>
        <path d="M52.58,39.31c0-1.57-1.28-2.86-2.85-2.86h-2.56c-.55,0-1,.45-1,1v5.56c0,.55,.45,1,1,1s1-.45,1-1v-.85h1.15l1.56,1.52c.19,.19,.45,.28,.7,.28s.52-.1,.72-.3c.39-.4,.38-1.03-.02-1.41l-.78-.76c.65-.52,1.08-1.29,1.08-2.18Zm-4.41-.86h1.56c.48,0,.85,.38,.85,.86s-.38,.85-.85,.85h-1.56v-1.71Z"/>
        <path d="M38.35,45.81h-12.7c-.55,0-1,.45-1,1s.45,1,1,1h12.7c.55,0,1-.45,1-1s-.45-1-1-1Z"/>
        <path d="M16.93,45.81c-.27,0-.52,.11-.71,.29s-.29,.44-.29,.71,.1,.52,.29,.71c.19,.19,.44,.29,.71,.29s.52-.11,.71-.29,.29-.44,.29-.71-.11-.52-.29-.71c-.19-.19-.44-.29-.71-.29Z"/>
        <path d="M21.08,45.81c-.26,0-.52,.11-.71,.29s-.29,.44-.29,.71,.11,.52,.29,.71c.19,.19,.44,.29,.71,.29s.52-.11,.71-.29c.19-.19,.29-.44,.29-.71s-.1-.52-.29-.71-.44-.29-.71-.29Z"/>
        <path d="M42.92,45.81c-.27,0-.52,.11-.71,.29s-.29,.44-.29,.71,.1,.52,.29,.71c.19,.19,.44,.29,.71,.29s.52-.11,.71-.29c.19-.19,.29-.44,.29-.71s-.1-.52-.29-.71c-.19-.19-.44-.29-.71-.29Z"/>
        <path d="M47.07,45.81c-.27,0-.52,.11-.71,.29-.19,.19-.29,.44-.29,.71s.11,.52,.29,.71,.44,.29,.71,.29,.52-.11,.71-.29c.19-.19,.29-.44,.29-.71s-.11-.52-.29-.71-.44-.29-.71-.29Z"/>
    </g>
    <g id="lo"/>
    <g id="lp"/>
    <g id="lq"/>
    <g id="lr"/>
    <g id="ls"/>
    <g id="lt"/>
    <g id="lu"/>
    <g id="lv"/>
    <g id="lw"/>
    <g id="lx"/>
    <g id="ly"/>
    <g id="la`"/>
    <g id="laa"/>
    <g id="lab"/>
    <g id="lac"/>
    <g id="lad"/>
    <g id="lae"/>
    <g id="laf"/>
    <g id="lag"/>
    <g id="lah"/>
    <g id="lai"/>
    <g id="laj"/>
    <g id="lak"/>
    <g id="lal"/>
    <g id="lam"/>
    <g id="lan"/>
    <g id="lao"/>
    <g id="lap"/>
    <g id="laq"/>
    <g id="lar"/>
    <g id="las"/>
    <g id="lat"/>
    <g id="lau"/>
    <g id="lav"/>
    <g id="law"/>
    <g id="lax"/>
</symbol></svg>