<svg width="32" height="32" viewBox="0 0 32 32" fill="none" xmlns="http://www.w3.org/2000/svg">
<path d="M10.6679 16.0006C10.6679 13.0551 13.0551 10.6667 16.0006 10.6667C18.9462 10.6667 21.3346 13.0551 21.3346 16.0006C21.3346 18.9462 18.9462 21.3346 16.0006 21.3346C13.0551 21.3346 10.6679 18.9462 10.6679 16.0006ZM7.7845 16.0006C7.7845 20.5384 11.4629 24.2168 16.0006 24.2168C20.5384 24.2168 24.2168 20.5384 24.2168 16.0006C24.2168 11.4629 20.5384 7.7845 16.0006 7.7845C11.4629 7.7845 7.7845 11.4629 7.7845 16.0006ZM22.622 7.45873C22.6218 7.83849 22.7343 8.20976 22.9451 8.5256C23.156 8.84144 23.4558 9.08766 23.8065 9.23312C24.1573 9.37859 24.5434 9.41677 24.9159 9.34283C25.2884 9.26889 25.6306 9.08616 25.8992 8.81774C26.1678 8.54932 26.3508 8.20727 26.4251 7.83484C26.4993 7.46241 26.4614 7.07633 26.3163 6.72543C26.1711 6.37452 25.9251 6.07455 25.6094 5.86344C25.2937 5.65233 24.9226 5.53957 24.5428 5.53942H24.542C24.033 5.53966 23.5449 5.74192 23.1849 6.10179C22.8249 6.46166 22.6224 6.9497 22.622 7.45873ZM9.53638 29.0248C7.97638 28.9537 7.12848 28.6939 6.565 28.4744C5.81796 28.1835 5.28495 27.8371 4.72454 27.2775C4.16413 26.7179 3.81724 26.1854 3.52769 25.4383C3.30804 24.8751 3.04819 24.0269 2.97727 22.4669C2.8997 20.7804 2.88421 20.2737 2.88421 16.0008C2.88421 11.7278 2.90098 11.2226 2.97727 9.53459C3.04831 7.97459 3.31008 7.12809 3.52769 6.56321C3.81852 5.81617 4.1649 5.28316 4.72454 4.72275C5.28418 4.16234 5.81668 3.81545 6.565 3.5259C7.12822 3.30624 7.97638 3.04639 9.53638 2.97548C11.223 2.89791 11.7296 2.88242 16.0006 2.88242C20.2717 2.88242 20.7788 2.89919 22.4668 2.97548C24.0268 3.04652 24.8733 3.30829 25.4382 3.5259C26.1852 3.81545 26.7183 4.16311 27.2787 4.72275C27.8391 5.28239 28.1847 5.81617 28.4755 6.56321C28.6952 7.12643 28.955 7.97459 29.0259 9.53459C29.1035 11.2226 29.119 11.7278 29.119 16.0008C29.119 20.2737 29.1035 20.7789 29.0259 22.4669C28.9549 24.0269 28.6938 24.8749 28.4755 25.4383C28.1847 26.1854 27.8383 26.7184 27.2787 27.2775C26.719 27.8366 26.1852 28.1835 25.4382 28.4744C24.875 28.694 24.0268 28.9539 22.4668 29.0248C20.7802 29.1024 20.2736 29.1178 16.0006 29.1178C11.7277 29.1178 11.2225 29.1024 9.53638 29.0248ZM9.4039 0.0968999C7.70053 0.174471 6.53658 0.444562 5.52009 0.840098C4.46738 1.24856 3.57621 1.79655 2.68568 2.68568C1.79514 3.5748 1.24856 4.46738 0.840098 5.52009C0.444562 6.53722 0.174471 7.70053 0.0968999 9.4039C0.0180487 11.1099 0 11.6554 0 16.0006C0 20.3459 0.0180487 20.8913 0.0968999 22.5974C0.174471 24.3009 0.444562 25.4641 0.840098 26.4812C1.24856 27.5333 1.79527 28.4269 2.68568 29.3156C3.57608 30.2043 4.46738 30.7516 5.52009 31.1612C6.5385 31.5567 7.70053 31.8268 9.4039 31.9044C11.1108 31.982 11.6554 32.0013 16.0006 32.0013C20.3459 32.0013 20.8913 31.9832 22.5974 31.9044C24.3009 31.8268 25.4641 31.5567 26.4812 31.1612C27.5333 30.7516 28.4251 30.2047 29.3156 29.3156C30.2061 28.4265 30.7516 27.5333 31.1612 26.4812C31.5567 25.4641 31.8281 24.3007 31.9044 22.5974C31.982 20.8901 32 20.3459 32 16.0006C32 11.6554 31.982 11.1099 31.9044 9.4039C31.8268 7.7004 31.5567 6.53658 31.1612 5.52009C30.7516 4.46802 30.2047 3.57621 29.3156 2.68568C28.4265 1.79514 27.5333 1.24856 26.4825 0.840098C25.4641 0.444562 24.3007 0.173191 22.5987 0.0968999C20.8926 0.0193288 20.3472 0 16.0019 0C11.6567 0 11.1108 0.0180487 9.4039 0.0968999Z" fill="url(#paint0_radial_2_75)"/>
<path d="M10.6679 16.0006C10.6679 13.0551 13.0551 10.6667 16.0006 10.6667C18.9462 10.6667 21.3346 13.0551 21.3346 16.0006C21.3346 18.9462 18.9462 21.3346 16.0006 21.3346C13.0551 21.3346 10.6679 18.9462 10.6679 16.0006ZM7.7845 16.0006C7.7845 20.5384 11.4629 24.2168 16.0006 24.2168C20.5384 24.2168 24.2168 20.5384 24.2168 16.0006C24.2168 11.4629 20.5384 7.7845 16.0006 7.7845C11.4629 7.7845 7.7845 11.4629 7.7845 16.0006ZM22.622 7.45873C22.6218 7.83849 22.7343 8.20976 22.9451 8.5256C23.156 8.84144 23.4558 9.08766 23.8065 9.23312C24.1573 9.37859 24.5434 9.41677 24.9159 9.34283C25.2884 9.26889 25.6306 9.08616 25.8992 8.81774C26.1678 8.54932 26.3508 8.20727 26.4251 7.83484C26.4993 7.46241 26.4614 7.07633 26.3163 6.72543C26.1711 6.37452 25.9251 6.07455 25.6094 5.86344C25.2937 5.65233 24.9226 5.53957 24.5428 5.53942H24.542C24.033 5.53966 23.5449 5.74192 23.1849 6.10179C22.8249 6.46166 22.6224 6.9497 22.622 7.45873ZM9.53638 29.0248C7.97638 28.9537 7.12848 28.6939 6.565 28.4744C5.81796 28.1835 5.28495 27.8371 4.72454 27.2775C4.16413 26.7179 3.81724 26.1854 3.52769 25.4383C3.30804 24.8751 3.04819 24.0269 2.97727 22.4669C2.8997 20.7804 2.88421 20.2737 2.88421 16.0008C2.88421 11.7278 2.90098 11.2226 2.97727 9.53459C3.04831 7.97459 3.31008 7.12809 3.52769 6.56321C3.81852 5.81617 4.1649 5.28316 4.72454 4.72275C5.28418 4.16234 5.81668 3.81545 6.565 3.5259C7.12822 3.30624 7.97638 3.04639 9.53638 2.97548C11.223 2.89791 11.7296 2.88242 16.0006 2.88242C20.2717 2.88242 20.7788 2.89919 22.4668 2.97548C24.0268 3.04652 24.8733 3.30829 25.4382 3.5259C26.1852 3.81545 26.7183 4.16311 27.2787 4.72275C27.8391 5.28239 28.1847 5.81617 28.4755 6.56321C28.6952 7.12643 28.955 7.97459 29.0259 9.53459C29.1035 11.2226 29.119 11.7278 29.119 16.0008C29.119 20.2737 29.1035 20.7789 29.0259 22.4669C28.9549 24.0269 28.6938 24.8749 28.4755 25.4383C28.1847 26.1854 27.8383 26.7184 27.2787 27.2775C26.719 27.8366 26.1852 28.1835 25.4382 28.4744C24.875 28.694 24.0268 28.9539 22.4668 29.0248C20.7802 29.1024 20.2736 29.1178 16.0006 29.1178C11.7277 29.1178 11.2225 29.1024 9.53638 29.0248ZM9.4039 0.0968999C7.70053 0.174471 6.53658 0.444562 5.52009 0.840098C4.46738 1.24856 3.57621 1.79655 2.68568 2.68568C1.79514 3.5748 1.24856 4.46738 0.840098 5.52009C0.444562 6.53722 0.174471 7.70053 0.0968999 9.4039C0.0180487 11.1099 0 11.6554 0 16.0006C0 20.3459 0.0180487 20.8913 0.0968999 22.5974C0.174471 24.3009 0.444562 25.4641 0.840098 26.4812C1.24856 27.5333 1.79527 28.4269 2.68568 29.3156C3.57608 30.2043 4.46738 30.7516 5.52009 31.1612C6.5385 31.5567 7.70053 31.8268 9.4039 31.9044C11.1108 31.982 11.6554 32.0013 16.0006 32.0013C20.3459 32.0013 20.8913 31.9832 22.5974 31.9044C24.3009 31.8268 25.4641 31.5567 26.4812 31.1612C27.5333 30.7516 28.4251 30.2047 29.3156 29.3156C30.2061 28.4265 30.7516 27.5333 31.1612 26.4812C31.5567 25.4641 31.8281 24.3007 31.9044 22.5974C31.982 20.8901 32 20.3459 32 16.0006C32 11.6554 31.982 11.1099 31.9044 9.4039C31.8268 7.7004 31.5567 6.53658 31.1612 5.52009C30.7516 4.46802 30.2047 3.57621 29.3156 2.68568C28.4265 1.79514 27.5333 1.24856 26.4825 0.840098C25.4641 0.444562 24.3007 0.173191 22.5987 0.0968999C20.8926 0.0193288 20.3472 0 16.0019 0C11.6567 0 11.1108 0.0180487 9.4039 0.0968999Z" fill="url(#paint1_radial_2_75)"/>
<defs>
<radialGradient id="paint0_radial_2_75" cx="0" cy="0" r="1" gradientUnits="userSpaceOnUse" gradientTransform="translate(4.25156 32.1525) scale(41.775 41.775)">
<stop offset="0.09" stop-color="#FA8F21"/>
<stop offset="0.78" stop-color="#D82D7E"/>
</radialGradient>
<radialGradient id="paint1_radial_2_75" cx="0" cy="0" r="1" gradientUnits="userSpaceOnUse" gradientTransform="translate(19.4074 33.5861) scale(32.9245)">
<stop offset="0.64" stop-color="#8C3AAA" stop-opacity="0"/>
<stop offset="1" stop-color="#8C3AAA"/>
</radialGradient>
</defs>
</svg>
