<svg xmlns="http://www.w3.org/2000/svg"  viewBox="0 0 48 48" width="48px" height="48px"><defs><linearGradient id="0Pg7sQDg3OAkLjbcsuKMMa" x1="13.2" x2="38.53" y1="-5.74" y2="47.28" gradientTransform="rotate(-45 24 25.809)" gradientUnits="userSpaceOnUse"><stop offset="0" stop-color="#f2fcff"/><stop offset=".55" stop-color="#c1f3f9"/><stop offset=".97" stop-color="#baccfd"/></linearGradient><linearGradient id="0Pg7sQDg3OAkLjbcsuKMMb" x1="13.19" x2="38.56" y1="-5.78" y2="47.3" gradientTransform="rotate(-45 24 25.809)" gradientUnits="userSpaceOnUse"><stop offset="0" stop-color="#effbff"/><stop offset=".55" stop-color="#b3f0f8"/><stop offset=".97" stop-color="#abc1fd"/></linearGradient><linearGradient id="0Pg7sQDg3OAkLjbcsuKMMc" x1="13.2" x2="38.58" y1="-5.8" y2="47.32" gradientTransform="rotate(-45 24 25.809)" gradientUnits="userSpaceOnUse"><stop offset="0" stop-color="#ecfbff"/><stop offset=".55" stop-color="#a5edf7"/><stop offset=".97" stop-color="#9bb5fc"/></linearGradient><linearGradient id="0Pg7sQDg3OAkLjbcsuKMMd" x1="13.2" x2="38.6" y1="-5.82" y2="47.32" gradientTransform="rotate(-45 24 25.809)" gradientUnits="userSpaceOnUse"><stop offset="0" stop-color="#eafaff"/><stop offset=".55" stop-color="#98ebf5"/><stop offset=".97" stop-color="#8caafc"/></linearGradient><linearGradient id="0Pg7sQDg3OAkLjbcsuKMMe" x1="13.21" x2="38.61" y1="-5.84" y2="47.32" gradientTransform="rotate(-45 24 25.809)" gradientUnits="userSpaceOnUse"><stop offset="0" stop-color="#e7f9ff"/><stop offset=".55" stop-color="#8ae8f4"/><stop offset=".97" stop-color="#7c9ffc"/></linearGradient><linearGradient id="0Pg7sQDg3OAkLjbcsuKMMf" x1="13.22" x2="38.63" y1="-5.84" y2="47.32" gradientTransform="rotate(-45 24 25.809)" gradientUnits="userSpaceOnUse"><stop offset="0" stop-color="#e4f9fe"/><stop offset=".55" stop-color="#7ce5f3"/><stop offset=".97" stop-color="#6d93fb"/></linearGradient><linearGradient id="0Pg7sQDg3OAkLjbcsuKMMg" x1="13.24" x2="38.64" y1="-5.84" y2="47.3" gradientTransform="rotate(-45 24 25.809)" gradientUnits="userSpaceOnUse"><stop offset="0" stop-color="#e1f8fe"/><stop offset=".55" stop-color="#6ee2f2"/><stop offset=".97" stop-color="#5d88fb"/></linearGradient><linearGradient id="0Pg7sQDg3OAkLjbcsuKMMh" x1="13.26" x2="38.64" y1="-5.83" y2="47.29" gradientTransform="rotate(-45 24 25.809)" gradientUnits="userSpaceOnUse"><stop offset="0" stop-color="#dff7fe"/><stop offset=".55" stop-color="#61e0f0"/><stop offset=".97" stop-color="#4e7dfb"/></linearGradient><linearGradient id="0Pg7sQDg3OAkLjbcsuKMMi" x1="13.28" x2="38.64" y1="-5.82" y2="47.26" gradientTransform="rotate(-45 24 25.809)" gradientUnits="userSpaceOnUse"><stop offset="0" stop-color="#dcf7fe"/><stop offset=".55" stop-color="#53ddef"/><stop offset=".97" stop-color="#3e71fa"/></linearGradient><linearGradient id="0Pg7sQDg3OAkLjbcsuKMMj" x1="13.31" x2="38.64" y1="-5.79" y2="47.23" gradientTransform="rotate(-45 24 25.809)" gradientUnits="userSpaceOnUse"><stop offset="0" stop-color="#d9f6fe"/><stop offset=".55" stop-color="#45daee"/><stop offset=".97" stop-color="#2f66fa"/></linearGradient><linearGradient id="0Pg7sQDg3OAkLjbcsuKMMk" x1="16.57" x2="32.71" y1="5.74" y2="26.67" gradientTransform="rotate(-45 24 25.809)" gradientUnits="userSpaceOnUse"><stop offset="0" stop-color="#f8fdff"/><stop offset="1" stop-color="#e2fbff"/></linearGradient><linearGradient id="0Pg7sQDg3OAkLjbcsuKMMl" x1="17.21" x2="32.5" y1="6.38" y2="26.56" gradientTransform="rotate(-45 24 25.809)" gradientUnits="userSpaceOnUse"><stop offset="0" stop-color="#f6fdff"/><stop offset="1" stop-color="#dcfaff"/></linearGradient><linearGradient id="0Pg7sQDg3OAkLjbcsuKMMm" x1="17.82" x2="32.28" y1="7.01" y2="26.43" gradientTransform="rotate(-45 24 25.809)" gradientUnits="userSpaceOnUse"><stop offset="0" stop-color="#f5fcff"/><stop offset="1" stop-color="#d5f9ff"/></linearGradient><linearGradient id="0Pg7sQDg3OAkLjbcsuKMMn" x1="18.4" x2="32.06" y1="7.62" y2="26.3" gradientTransform="rotate(-45 24 25.809)" gradientUnits="userSpaceOnUse"><stop offset="0" stop-color="#f3fcff"/><stop offset="1" stop-color="#cff9ff"/></linearGradient><linearGradient id="0Pg7sQDg3OAkLjbcsuKMMo" x1="18.95" x2="31.84" y1="8.23" y2="26.16" gradientTransform="rotate(-45 24 25.809)" gradientUnits="userSpaceOnUse"><stop offset="0" stop-color="#f2fcff"/><stop offset="1" stop-color="#c8f8ff"/></linearGradient><linearGradient id="0Pg7sQDg3OAkLjbcsuKMMp" x1="19.47" x2="31.62" y1="8.81" y2="26" gradientTransform="rotate(-45 24 25.809)" gradientUnits="userSpaceOnUse"><stop offset="0" stop-color="#f0fbfe"/><stop offset="1" stop-color="#c2f7ff"/></linearGradient><linearGradient id="0Pg7sQDg3OAkLjbcsuKMMq" x1="19.97" x2="31.39" y1="9.38" y2="25.84" gradientTransform="rotate(-45 24 25.809)" gradientUnits="userSpaceOnUse"><stop offset="0" stop-color="#effbfe"/><stop offset="1" stop-color="#bbf6ff"/></linearGradient><linearGradient id="0Pg7sQDg3OAkLjbcsuKMMr" x1="20.44" x2="31.16" y1="9.93" y2="25.66" gradientTransform="rotate(-45 24 25.809)" gradientUnits="userSpaceOnUse"><stop offset="0" stop-color="#edfbfe"/><stop offset="1" stop-color="#b5f6ff"/></linearGradient><linearGradient id="0Pg7sQDg3OAkLjbcsuKMMs" x1="20.89" x2="30.93" y1="10.47" y2="25.47" gradientTransform="rotate(-45 24 25.809)" gradientUnits="userSpaceOnUse"><stop offset="0" stop-color="#ecfafe"/><stop offset="1" stop-color="#aef5ff"/></linearGradient><linearGradient id="0Pg7sQDg3OAkLjbcsuKMMt" x1="21.31" x2="30.7" y1="10.99" y2="25.27" gradientTransform="rotate(-45 24 25.809)" gradientUnits="userSpaceOnUse"><stop offset="0" stop-color="#eafafe"/><stop offset="1" stop-color="#a8f4ff"/></linearGradient></defs><path fill="url(#0Pg7sQDg3OAkLjbcsuKMMa)" d="m29.26,8.08c-6.03-6.03-15.91-5.85-21.71.52-5.13,5.64-5.14,14.49-.03,20.14,4.49,4.96,11.42,6.18,17.13,3.68.87-.38,1.88-.21,2.55.46l10.16,10.16c1.48,1.48,3.88,1.72,5.49.39,1.85-1.53,1.95-4.27.29-5.92l-10.28-10.28c-.67-.67-.84-1.67-.46-2.53,2.4-5.49,1.37-12.12-3.13-16.61Z"/><path fill="url(#0Pg7sQDg3OAkLjbcsuKMMb)" d="m29.1,8.24c-5.94-5.94-15.67-5.77-21.39.51-5.05,5.54-5.08,14.24-.06,19.81,4.45,4.95,11.36,6.14,17.02,3.61.87-.39,1.9-.22,2.58.46l10.22,10.22c1.39,1.39,3.65,1.62,5.17.38,1.76-1.44,1.85-4.04.29-5.6l-10.34-10.34c-.68-.68-.85-1.7-.46-2.58,2.42-5.43,1.42-12.01-3.03-16.46Z"/><path fill="url(#0Pg7sQDg3OAkLjbcsuKMMc)" d="m28.95,8.4c-5.85-5.85-15.43-5.68-21.06.5-4.96,5.44-5.01,13.99-.1,19.48,4.41,4.93,11.3,6.1,16.9,3.53.88-.41,1.92-.23,2.61.46l10.28,10.28c1.31,1.31,3.42,1.53,4.86.37,1.67-1.35,1.76-3.81.28-5.28l-10.39-10.39c-.69-.69-.86-1.74-.45-2.63,2.45-5.36,1.48-11.9-2.94-16.31Z"/><path fill="url(#0Pg7sQDg3OAkLjbcsuKMMd)" d="m28.79,8.56c-5.76-5.76-15.19-5.59-20.73.49-4.88,5.35-4.94,13.74-.13,19.15,4.37,4.92,11.25,6.07,16.79,3.46.89-.42,1.95-.24,2.64.46l10.34,10.34c1.22,1.22,3.2,1.44,4.54.36,1.58-1.26,1.67-3.57.28-4.96l-10.44-10.44c-.71-.71-.86-1.77-.44-2.68,2.48-5.29,1.53-11.79-2.85-16.16Z"/><path fill="url(#0Pg7sQDg3OAkLjbcsuKMMe)" d="m28.63,8.71c-5.66-5.66-14.95-5.51-20.41.47-4.8,5.25-4.87,13.5-.16,18.82,4.33,4.91,11.19,6.03,16.68,3.38.9-.44,1.97-.25,2.68.46l10.39,10.39c1.13,1.13,2.97,1.34,4.23.35,1.48-1.18,1.58-3.34.28-4.64l-10.49-10.49c-.72-.72-.87-1.81-.43-2.73,2.5-5.23,1.58-11.68-2.75-16.02Z"/><path fill="url(#0Pg7sQDg3OAkLjbcsuKMMf)" d="m28.48,8.87c-5.57-5.57-14.71-5.42-20.08.46-4.71,5.15-4.8,13.25-.2,18.5,4.29,4.9,11.13,6,16.57,3.31.9-.45,2-.26,2.71.46l10.45,10.45c1.05,1.05,2.74,1.25,3.91.34,1.39-1.09,1.48-3.11.27-4.32l-10.55-10.55c-.73-.73-.88-1.84-.42-2.77,2.53-5.16,1.64-11.57-2.66-15.87Z"/><path fill="url(#0Pg7sQDg3OAkLjbcsuKMMg)" d="m28.32,9.03c-5.48-5.48-14.47-5.33-19.76.45-4.63,5.06-4.73,13-.23,18.17,4.25,4.89,11.07,5.96,16.46,3.23.91-.46,2.02-.27,2.74.46l10.51,10.51c.96.96,2.52,1.16,3.59.32,1.3-1,1.39-2.88.27-4l-10.6-10.6c-.75-.75-.89-1.88-.42-2.82,2.54-5.1,1.69-11.46-2.57-15.72Z"/><path fill="url(#0Pg7sQDg3OAkLjbcsuKMMh)" d="m28.16,9.18c-5.39-5.39-14.22-5.25-19.43.44-4.54,4.96-4.66,12.75-.27,17.84,4.21,4.88,11.01,5.92,16.34,3.16.92-.48,2.05-.27,2.78.46l10.57,10.57c.88.88,2.29,1.06,3.28.31,1.21-.92,1.3-2.65.26-3.69l-10.65-10.65c-.76-.76-.9-1.91-.41-2.87,2.56-5.04,1.74-11.35-2.47-15.57Z"/><path fill="url(#0Pg7sQDg3OAkLjbcsuKMMi)" d="m28,9.34c-5.3-5.3-13.98-5.16-19.11.42-4.46,4.86-4.6,12.5-.3,17.51,4.18,4.87,10.95,5.89,16.23,3.08.92-.49,2.07-.28,2.81.46l10.62,10.62c.79.79,2.07.97,2.96.3,1.12-.83,1.21-2.42.26-3.37l-10.71-10.71c-.77-.77-.9-1.95-.4-2.92,2.58-4.97,1.8-11.24-2.38-15.42Z"/><path fill="url(#0Pg7sQDg3OAkLjbcsuKMMj)" d="m27.85,9.5c-5.21-5.21-13.74-5.07-18.78.41-4.38,4.77-4.53,12.26-.33,17.18s10.89,5.85,16.12,3.01c.93-.51,2.09-.29,2.84.46l10.68,10.68c.7.7,1.84.88,2.65.29,1.03-.74,1.12-2.19.26-3.05l-10.76-10.76c-.79-.79-.91-1.98-.39-2.97,2.6-4.91,1.85-11.13-2.29-15.27Z"/><g><circle cx="18.65" cy="18.69" r="11" fill="url(#0Pg7sQDg3OAkLjbcsuKMMk)"/><circle cx="18.65" cy="18.69" r="10.67" fill="url(#0Pg7sQDg3OAkLjbcsuKMMl)"/><circle cx="18.65" cy="18.69" r="10.33" fill="url(#0Pg7sQDg3OAkLjbcsuKMMm)"/><circle cx="18.65" cy="18.69" r="10" fill="url(#0Pg7sQDg3OAkLjbcsuKMMn)"/><circle cx="18.65" cy="18.69" r="9.67" fill="url(#0Pg7sQDg3OAkLjbcsuKMMo)"/><circle cx="18.65" cy="18.69" r="9.33" fill="url(#0Pg7sQDg3OAkLjbcsuKMMp)"/><circle cx="18.65" cy="18.69" r="9" fill="url(#0Pg7sQDg3OAkLjbcsuKMMq)"/><circle cx="18.65" cy="18.69" r="8.67" fill="url(#0Pg7sQDg3OAkLjbcsuKMMr)"/><circle cx="18.65" cy="18.69" r="8.33" fill="url(#0Pg7sQDg3OAkLjbcsuKMMs)"/><circle cx="18.65" cy="18.69" r="8" fill="url(#0Pg7sQDg3OAkLjbcsuKMMt)"/></g></svg>