<?xml version="1.0" ?><!DOCTYPE svg PUBLIC "-//W3C//DTD SVG 1.1//EN" "http://www.w3.org/Graphics/SVG/1.1/DTD/svg11.dtd"><svg viewBox="0 0 2000 2000" xmlns="http://www.w3.org/2000/svg" xmlns:xlink="http://www.w3.org/1999/xlink"><style>:root>svg{display:none}:root>svg:target{display:block}</style><svg fill="none" viewBox="0 0 24 24" id="arrow-right" xmlns="http://www.w3.org/2000/svg">
    <path d="M13 6.586 18.414 12 13 17.414 11.586 16l3-3H6v-2h8.586l-3-3L13 6.586Z" fill="#000"/>
    <path fill-rule="evenodd" clip-rule="evenodd" d="M1 12C1 5.925 5.925 1 12 1s11 4.925 11 11-4.925 11-11 11S1 18.075 1 12Zm11-9a9 9 0 1 0 0 18 9 9 0 0 0 0-18Z" fill="#000"/>
</svg><svg viewBox="0 0 24 24" xml:space="preserve" id="chip" xmlns="http://www.w3.org/2000/svg">
    <path fill="#303C42" d="M12 0C5.383 0 0 5.383 0 12s5.383 12 12 12 12-5.383 12-12S18.617 0 12 0z"/>
    <path fill="#5C6771" d="M23 12c0 .563-.056 1.112-.138 1.652l-1.068-.616a1.996 1.996 0 0 0-2.732.732l-2 3.464c-.55.955-.222 2.18.732 2.732l1.07.618A10.997 10.997 0 0 1 16 22.236V21c0-1.103-.897-2-2-2h-4c-1.103 0-2 .897-2 2v1.236a10.993 10.993 0 0 1-2.864-1.654l1.07-.618a2.004 2.004 0 0 0 .731-2.732l-2-3.464a1.985 1.985 0 0 0-1.213-.932 1.995 1.995 0 0 0-1.518.2l-1.068.616C1.056 13.112 1 12.563 1 12s.056-1.112.138-1.652l1.068.616a1.986 1.986 0 0 0 1.518.2c.515-.138.947-.47 1.213-.932l2-3.464c.551-.955.223-2.18-.73-2.732l-1.07-.618A10.997 10.997 0 0 1 8 1.764V3c0 1.103.897 2 2 2h4c1.103 0 2-.897 2-2V1.764c1.04.408 2.005.966 2.864 1.654l-1.07.618a2.004 2.004 0 0 0-.732 2.732l2 3.464c.267.463.699.794 1.214.932a1.986 1.986 0 0 0 1.518-.2l1.068-.616c.082.54.138 1.089.138 1.652z"/>
    <path fill="#FFF" d="m22.654 9.313-1.36.785a1 1 0 0 1-1.366-.366l-2-3.464a1.001 1.001 0 0 1 .366-1.366l1.36-.785c1.442 1.399 2.493 3.189 3 5.196z"/>
    <circle fill="#303C42" cx="12" cy="12" r="6"/>
    <circle fill="#FFCB29" cx="12" cy="12" r="5"/>
    <path fill="#303C42" d="M11.75 10h1.75a.5.5 0 1 0 0-1h-1v-.5a.5.5 0 1 0-1 0v.525c-.846.123-1.5.846-1.5 1.725 0 .965.785 1.75 1.75 1.75h.5a.751.751 0 0 1 0 1.5H10.5a.5.5 0 1 0 0 1h1v.5a.5.5 0 1 0 1 0v-.525A1.747 1.747 0 0 0 14 13.25c0-.965-.785-1.75-1.75-1.75h-.5a.751.751 0 0 1 0-1.5z"/>
    <path fill="#FFF" d="M15 1.426V3c0 .551-.448 1-1 1h-4c-.552 0-1-.449-1-1V1.426C9.955 1.155 10.959 1 12 1s2.045.155 3 .426zM19.655 19.883l-1.361-.784a1.003 1.003 0 0 1-.366-1.367l2-3.464a.994.994 0 0 1 1.365-.366l1.361.785a10.99 10.99 0 0 1-3 5.196zM4.345 4.117l1.361.784c.477.277.642.89.366 1.367l-2 3.464a.991.991 0 0 1-.607.466.992.992 0 0 1-.759-.1l-1.36-.785a10.99 10.99 0 0 1 3-5.196zM1.346 14.687l1.36-.785a.996.996 0 0 1 1.366.366l2 3.464c.276.477.11 1.09-.366 1.366l-1.36.785a10.991 10.991 0 0 1-3-5.196zM9 22.574V21c0-.551.448-1 1-1h4c.552 0 1 .449 1 1v1.574c-.955.271-1.959.426-3 .426s-2.045-.155-3-.426z"/>
    <linearGradient id="ba" gradientUnits="userSpaceOnUse" x1="12.011" y1="12.012" x2="19.722" y2="19.723">
        <stop offset="0" style="stop-color:#010101;stop-opacity:.1"/>
        <stop offset="1" style="stop-color:#010101;stop-opacity:0"/>
    </linearGradient>
    <path fill="url(#ba)" d="M16.277 7.799A5.978 5.978 0 0 1 18 12c0 3.309-2.691 6-6 6a5.98 5.98 0 0 1-4.229-1.748L10.52 19H14c1.103 0 2 .897 2 2v1.236a10.997 10.997 0 0 0 2.864-1.654l-1.07-.618a2.004 2.004 0 0 1-.732-2.732l2-3.464a1.985 1.985 0 0 1 1.214-.932c.35-.092.71-.083 1.049.011L16.277 7.8z"/>
    <linearGradient id="bb" gradientUnits="userSpaceOnUse" x1="1.125" y1="6.929" x2="22.875" y2="17.071">
        <stop offset="0" style="stop-color:#fff;stop-opacity:.2"/>
        <stop offset="1" style="stop-color:#fff;stop-opacity:0"/>
    </linearGradient>
    <path fill="url(#bb)" d="M12 0C5.383 0 0 5.383 0 12s5.383 12 12 12 12-5.383 12-12S18.617 0 12 0z"/>
</svg><svg fill="none" viewBox="0 0 20 20" id="close" xmlns="http://www.w3.org/2000/svg">
    <path d="m13.535 10 5.731-5.726A2.476 2.476 0 0 0 20 2.508c0-.667-.26-1.294-.734-1.766A2.483 2.483 0 0 0 17.5.01c-.668 0-1.296.26-1.769.73L10 6.469 4.267.742A2.484 2.484 0 0 0 2.498.01 2.498 2.498 0 0 0 .731 4.274L6.464 10 .732 15.727a2.498 2.498 0 1 0 3.535 3.532l5.732-5.727 5.732 5.726c.472.472 1.1.732 1.767.732a2.498 2.498 0 0 0 1.768-4.264L13.535 10Zm4.847 8.375c-.472.472-1.295.472-1.768 0l-6.173-6.167a.623.623 0 0 0-.884 0l-6.174 6.168c-.473.471-1.296.471-1.768 0a1.25 1.25 0 0 1 0-1.766l6.174-6.168a.621.621 0 0 0 0-.883L1.614 3.39a1.25 1.25 0 0 1 1.769-1.766l6.174 6.168c.244.244.639.244.884 0l6.174-6.168c.473-.472 1.295-.472 1.768 0 .235.236.366.55.366.883 0 .333-.13.647-.366.883l-6.174 6.168a.623.623 0 0 0 0 .883l6.174 6.167a1.25 1.25 0 0 1-.001 1.766Z" fill="#45A29E"/>
</svg><svg style="enable-background:new 0 0 709.886 709.886" xml:space="preserve" viewBox="0 0 709.886 709.886" id="double-arrow" xmlns="http://www.w3.org/2000/svg">
    <path d="M650.686 323.626 431.282 21.972C421.301 8.217 405.165 0 388.115 0c-11.327 0-22.16 3.529-31.316 10.195-23.768 17.279-29.045 50.684-11.766 74.467l196.606 270.317-196.612 270.239c-17.284 23.773-12.001 57.173 11.777 74.462 9.198 6.677 20.035 10.206 31.342 10.206 17.029 0 33.154-8.217 43.125-21.967l219.403-301.576c13.688-18.762 13.688-43.971.012-62.717zm-16.883 50.413L414.379 675.635c-6.066 8.368-15.869 13.359-26.227 13.359-6.87 0-13.469-2.15-19.07-6.218-14.46-10.514-17.67-30.825-7.156-45.28l201.08-276.378a10.428 10.428 0 0 0 0-12.283L361.926 72.39c-10.514-14.471-7.304-34.793 7.156-45.307 5.57-4.056 12.153-6.202 19.033-6.202 10.378 0 20.197 4.996 26.269 13.364L633.809 335.92c8.315 11.401 8.315 26.712-.006 38.119z"/>
    <path d="M364.771 323.626 145.352 21.978C135.381 8.217 119.25 0 102.201 0 90.873 0 80.046 3.529 70.89 10.195 47.122 27.469 41.838 60.869 59.112 84.668L255.718 354.98 59.107 625.218c-17.279 23.778-11.991 57.178 11.787 74.451 9.193 6.677 20.03 10.206 31.337 10.206 17.034 0 33.154-8.217 43.109-21.967l219.424-301.576c13.678-18.751 13.678-43.96.007-62.706zm-16.888 50.413L128.438 675.641c-6.056 8.362-15.854 13.354-26.211 13.354-6.87 0-13.463-2.151-19.064-6.218-14.46-10.503-17.67-30.82-7.167-45.28l201.08-276.378a10.428 10.428 0 0 0 0-12.283L76 72.39c-10.508-14.476-7.292-34.798 7.173-45.312 5.57-4.051 12.147-6.196 19.033-6.196 10.373 0 20.182 4.99 26.248 13.364L347.888 335.92c8.316 11.401 8.316 26.712-.005 38.119z"/>
</svg><svg viewBox="126.445 2.281 589 589" id="facebook" xmlns="http://www.w3.org/2000/svg">
    <circle cx="420.945" cy="296.781" fill="#3c5a9a" r="294.5"/>
    <path d="M516.704 92.677h-65.239c-38.715 0-81.777 16.283-81.777 72.402.189 19.554 0 38.281 0 59.357H324.9v71.271h46.174v205.177h84.847V294.353h56.002l5.067-70.117h-62.531s.14-31.191 0-40.249c0-22.177 23.076-20.907 24.464-20.907 10.981 0 32.332.032 37.813 0V92.677z" fill="#fff"/>
</svg><svg viewBox="0 0 2499.9 2500" id="instagram" xmlns="http://www.w3.org/2000/svg">
    <defs>
        <radialGradient id="fa" cx="332.14" cy="2511.81" r="3263.54" gradientUnits="userSpaceOnUse">
            <stop offset=".09" stop-color="#fa8f21"/>
            <stop offset=".78" stop-color="#d82d7e"/>
        </radialGradient>
        <radialGradient id="fb" cx="1516.14" cy="2623.81" r="2572.12" gradientUnits="userSpaceOnUse">
            <stop offset=".64" stop-color="#8c3aaa" stop-opacity="0"/>
            <stop offset="1" stop-color="#8c3aaa"/>
        </radialGradient>
    </defs>
    <path d="M833.4 1250c0-230.11 186.49-416.7 416.6-416.7s416.7 186.59 416.7 416.7-186.59 416.7-416.7 416.7-416.6-186.59-416.6-416.7m-225.26 0c0 354.5 287.36 641.86 641.86 641.86s641.86-287.36 641.86-641.86S1604.5 608.14 1250 608.14 608.14 895.5 608.14 1250m1159.13-667.31a150 150 0 1 0 150.06-149.94h-.06a150.07 150.07 0 0 0-150 149.94M745 2267.47c-121.87-5.55-188.11-25.85-232.13-43-58.36-22.72-100-49.78-143.78-93.5s-70.88-85.32-93.5-143.68c-17.16-44-37.46-110.26-43-232.13-6.06-131.76-7.27-171.34-7.27-505.15s1.31-373.28 7.27-505.15c5.55-121.87 26-188 43-232.13 22.72-58.36 49.78-100 93.5-143.78s85.32-70.88 143.78-93.5c44-17.16 110.26-37.46 232.13-43 131.76-6.06 171.34-7.27 505-7.27s373.28 1.31 505.15 7.27c121.87 5.55 188 26 232.13 43 58.36 22.62 100 49.78 143.78 93.5s70.78 85.42 93.5 143.78c17.16 44 37.46 110.26 43 232.13 6.06 131.87 7.27 171.34 7.27 505.15s-1.21 373.28-7.27 505.15c-5.55 121.87-25.95 188.11-43 232.13-22.72 58.36-49.78 100-93.5 143.68s-85.42 70.78-143.78 93.5c-44 17.16-110.26 37.46-232.13 43-131.76 6.06-171.34 7.27-505.15 7.27s-373.28-1.21-505-7.27M734.65 7.57c-133.07 6.06-224 27.16-303.41 58.06C349 97.54 279.38 140.35 209.81 209.81S97.54 349 65.63 431.24c-30.9 79.46-52 170.34-58.06 303.41C1.41 867.93 0 910.54 0 1250s1.41 382.07 7.57 515.35c6.06 133.08 27.16 223.95 58.06 303.41 31.91 82.19 74.62 152 144.18 221.43S349 2402.37 431.24 2434.37c79.56 30.9 170.34 52 303.41 58.06C868 2498.49 910.54 2500 1250 2500s382.07-1.41 515.35-7.57c133.08-6.06 223.95-27.16 303.41-58.06 82.19-32 151.86-74.72 221.43-144.18s112.18-139.24 144.18-221.43c30.9-79.46 52.1-170.34 58.06-303.41 6.06-133.38 7.47-175.89 7.47-515.35s-1.41-382.07-7.47-515.35c-6.06-133.08-27.16-224-58.06-303.41-32-82.19-74.72-151.86-144.18-221.43S2150.95 97.54 2068.86 65.63c-79.56-30.9-170.44-52.1-303.41-58.06C1632.17 1.51 1589.56 0 1250.1 0S868 1.41 734.65 7.57" fill="url(#fa)"/>
    <path d="M833.4 1250c0-230.11 186.49-416.7 416.6-416.7s416.7 186.59 416.7 416.7-186.59 416.7-416.7 416.7-416.6-186.59-416.6-416.7m-225.26 0c0 354.5 287.36 641.86 641.86 641.86s641.86-287.36 641.86-641.86S1604.5 608.14 1250 608.14 608.14 895.5 608.14 1250m1159.13-667.31a150 150 0 1 0 150.06-149.94h-.06a150.07 150.07 0 0 0-150 149.94M745 2267.47c-121.87-5.55-188.11-25.85-232.13-43-58.36-22.72-100-49.78-143.78-93.5s-70.88-85.32-93.5-143.68c-17.16-44-37.46-110.26-43-232.13-6.06-131.76-7.27-171.34-7.27-505.15s1.31-373.28 7.27-505.15c5.55-121.87 26-188 43-232.13 22.72-58.36 49.78-100 93.5-143.78s85.32-70.88 143.78-93.5c44-17.16 110.26-37.46 232.13-43 131.76-6.06 171.34-7.27 505-7.27s373.28 1.31 505.15 7.27c121.87 5.55 188 26 232.13 43 58.36 22.62 100 49.78 143.78 93.5s70.78 85.42 93.5 143.78c17.16 44 37.46 110.26 43 232.13 6.06 131.87 7.27 171.34 7.27 505.15s-1.21 373.28-7.27 505.15c-5.55 121.87-25.95 188.11-43 232.13-22.72 58.36-49.78 100-93.5 143.68s-85.42 70.78-143.78 93.5c-44 17.16-110.26 37.46-232.13 43-131.76 6.06-171.34 7.27-505.15 7.27s-373.28-1.21-505-7.27M734.65 7.57c-133.07 6.06-224 27.16-303.41 58.06C349 97.54 279.38 140.35 209.81 209.81S97.54 349 65.63 431.24c-30.9 79.46-52 170.34-58.06 303.41C1.41 867.93 0 910.54 0 1250s1.41 382.07 7.57 515.35c6.06 133.08 27.16 223.95 58.06 303.41 31.91 82.19 74.62 152 144.18 221.43S349 2402.37 431.24 2434.37c79.56 30.9 170.34 52 303.41 58.06C868 2498.49 910.54 2500 1250 2500s382.07-1.41 515.35-7.57c133.08-6.06 223.95-27.16 303.41-58.06 82.19-32 151.86-74.72 221.43-144.18s112.18-139.24 144.18-221.43c30.9-79.46 52.1-170.34 58.06-303.41 6.06-133.38 7.47-175.89 7.47-515.35s-1.41-382.07-7.47-515.35c-6.06-133.08-27.16-224-58.06-303.41-32-82.19-74.72-151.86-144.18-221.43S2150.95 97.54 2068.86 65.63c-79.56-30.9-170.44-52.1-303.41-58.06C1632.17 1.51 1589.56 0 1250.1 0S868 1.41 734.65 7.57" fill="url(#fb)"/>
</svg><svg fill="none" viewBox="0 0 33 37" id="play" xmlns="http://www.w3.org/2000/svg">
    <path d="M3.499 1.226 31.046 17.13a1.666 1.666 0 0 1 0 2.885L3.499 35.92A1.666 1.666 0 0 1 1 34.477V2.668a1.666 1.666 0 0 1 2.499-1.442Z" fill="#45A29E"/>
    <path d="M31.046 17.13 3.499 1.226a1.671 1.671 0 0 0-.51-.185l26.63 15.375a1.666 1.666 0 0 1 0 2.886L2.073 35.206c-.25.143-.511.205-.77.215.469.669 1.4.958 2.196.498l27.547-15.904a1.666 1.666 0 0 0 0-2.885Z" fill="#45A29E"/>
    <path d="M3.499 1.226 31.046 17.13a1.666 1.666 0 0 1 0 2.885L3.499 35.92A1.666 1.666 0 0 1 1 34.477V2.668a1.666 1.666 0 0 1 2.499-1.442Z" stroke="#45A29E" stroke-miterlimit="10"/>
</svg><svg viewBox="0 0 512.001 512.001" style="enable-background:new 0 0 512.001 512.001" xml:space="preserve" id="russian" xmlns="http://www.w3.org/2000/svg">
    <path style="fill:#f5f5f5" d="M512 200.093H0V97.104a8.829 8.829 0 0 1 8.828-8.828h494.345a8.829 8.829 0 0 1 8.828 8.828L512 200.093z"/>
    <path style="fill:#ff4b55" d="M503.172 423.725H8.828A8.829 8.829 0 0 1 0 414.897V311.909h512v102.988a8.828 8.828 0 0 1-8.828 8.828z"/>
    <path style="fill:#41479b" d="M0 200.091h512v111.81H0z"/>
</svg><svg viewBox="0 0 48 48" id="search" xmlns="http://www.w3.org/2000/svg">
    <defs>
        <linearGradient id="ia" x1="13.2" x2="38.53" y1="-5.74" y2="47.28" gradientTransform="rotate(-45 24 25.809)" gradientUnits="userSpaceOnUse">
            <stop offset="0" stop-color="#f2fcff"/>
            <stop offset=".55" stop-color="#c1f3f9"/>
            <stop offset=".97" stop-color="#baccfd"/>
        </linearGradient>
        <linearGradient id="ib" x1="13.19" x2="38.56" y1="-5.78" y2="47.3" gradientTransform="rotate(-45 24 25.809)" gradientUnits="userSpaceOnUse">
            <stop offset="0" stop-color="#effbff"/>
            <stop offset=".55" stop-color="#b3f0f8"/>
            <stop offset=".97" stop-color="#abc1fd"/>
        </linearGradient>
        <linearGradient id="ic" x1="13.2" x2="38.58" y1="-5.8" y2="47.32" gradientTransform="rotate(-45 24 25.809)" gradientUnits="userSpaceOnUse">
            <stop offset="0" stop-color="#ecfbff"/>
            <stop offset=".55" stop-color="#a5edf7"/>
            <stop offset=".97" stop-color="#9bb5fc"/>
        </linearGradient>
        <linearGradient id="id" x1="13.2" x2="38.6" y1="-5.82" y2="47.32" gradientTransform="rotate(-45 24 25.809)" gradientUnits="userSpaceOnUse">
            <stop offset="0" stop-color="#eafaff"/>
            <stop offset=".55" stop-color="#98ebf5"/>
            <stop offset=".97" stop-color="#8caafc"/>
        </linearGradient>
        <linearGradient id="ie" x1="13.21" x2="38.61" y1="-5.84" y2="47.32" gradientTransform="rotate(-45 24 25.809)" gradientUnits="userSpaceOnUse">
            <stop offset="0" stop-color="#e7f9ff"/>
            <stop offset=".55" stop-color="#8ae8f4"/>
            <stop offset=".97" stop-color="#7c9ffc"/>
        </linearGradient>
        <linearGradient id="if" x1="13.22" x2="38.63" y1="-5.84" y2="47.32" gradientTransform="rotate(-45 24 25.809)" gradientUnits="userSpaceOnUse">
            <stop offset="0" stop-color="#e4f9fe"/>
            <stop offset=".55" stop-color="#7ce5f3"/>
            <stop offset=".97" stop-color="#6d93fb"/>
        </linearGradient>
        <linearGradient id="ig" x1="13.24" x2="38.64" y1="-5.84" y2="47.3" gradientTransform="rotate(-45 24 25.809)" gradientUnits="userSpaceOnUse">
            <stop offset="0" stop-color="#e1f8fe"/>
            <stop offset=".55" stop-color="#6ee2f2"/>
            <stop offset=".97" stop-color="#5d88fb"/>
        </linearGradient>
        <linearGradient id="ih" x1="13.26" x2="38.64" y1="-5.83" y2="47.29" gradientTransform="rotate(-45 24 25.809)" gradientUnits="userSpaceOnUse">
            <stop offset="0" stop-color="#dff7fe"/>
            <stop offset=".55" stop-color="#61e0f0"/>
            <stop offset=".97" stop-color="#4e7dfb"/>
        </linearGradient>
        <linearGradient id="ii" x1="13.28" x2="38.64" y1="-5.82" y2="47.26" gradientTransform="rotate(-45 24 25.809)" gradientUnits="userSpaceOnUse">
            <stop offset="0" stop-color="#dcf7fe"/>
            <stop offset=".55" stop-color="#53ddef"/>
            <stop offset=".97" stop-color="#3e71fa"/>
        </linearGradient>
        <linearGradient id="ij" x1="13.31" x2="38.64" y1="-5.79" y2="47.23" gradientTransform="rotate(-45 24 25.809)" gradientUnits="userSpaceOnUse">
            <stop offset="0" stop-color="#d9f6fe"/>
            <stop offset=".55" stop-color="#45daee"/>
            <stop offset=".97" stop-color="#2f66fa"/>
        </linearGradient>
        <linearGradient id="ik" x1="16.57" x2="32.71" y1="5.74" y2="26.67" gradientTransform="rotate(-45 24 25.809)" gradientUnits="userSpaceOnUse">
            <stop offset="0" stop-color="#f8fdff"/>
            <stop offset="1" stop-color="#e2fbff"/>
        </linearGradient>
        <linearGradient id="il" x1="17.21" x2="32.5" y1="6.38" y2="26.56" gradientTransform="rotate(-45 24 25.809)" gradientUnits="userSpaceOnUse">
            <stop offset="0" stop-color="#f6fdff"/>
            <stop offset="1" stop-color="#dcfaff"/>
        </linearGradient>
        <linearGradient id="im" x1="17.82" x2="32.28" y1="7.01" y2="26.43" gradientTransform="rotate(-45 24 25.809)" gradientUnits="userSpaceOnUse">
            <stop offset="0" stop-color="#f5fcff"/>
            <stop offset="1" stop-color="#d5f9ff"/>
        </linearGradient>
        <linearGradient id="in" x1="18.4" x2="32.06" y1="7.62" y2="26.3" gradientTransform="rotate(-45 24 25.809)" gradientUnits="userSpaceOnUse">
            <stop offset="0" stop-color="#f3fcff"/>
            <stop offset="1" stop-color="#cff9ff"/>
        </linearGradient>
        <linearGradient id="io" x1="18.95" x2="31.84" y1="8.23" y2="26.16" gradientTransform="rotate(-45 24 25.809)" gradientUnits="userSpaceOnUse">
            <stop offset="0" stop-color="#f2fcff"/>
            <stop offset="1" stop-color="#c8f8ff"/>
        </linearGradient>
        <linearGradient id="ip" x1="19.47" x2="31.62" y1="8.81" y2="26" gradientTransform="rotate(-45 24 25.809)" gradientUnits="userSpaceOnUse">
            <stop offset="0" stop-color="#f0fbfe"/>
            <stop offset="1" stop-color="#c2f7ff"/>
        </linearGradient>
        <linearGradient id="iq" x1="19.97" x2="31.39" y1="9.38" y2="25.84" gradientTransform="rotate(-45 24 25.809)" gradientUnits="userSpaceOnUse">
            <stop offset="0" stop-color="#effbfe"/>
            <stop offset="1" stop-color="#bbf6ff"/>
        </linearGradient>
        <linearGradient id="ir" x1="20.44" x2="31.16" y1="9.93" y2="25.66" gradientTransform="rotate(-45 24 25.809)" gradientUnits="userSpaceOnUse">
            <stop offset="0" stop-color="#edfbfe"/>
            <stop offset="1" stop-color="#b5f6ff"/>
        </linearGradient>
        <linearGradient id="is" x1="20.89" x2="30.93" y1="10.47" y2="25.47" gradientTransform="rotate(-45 24 25.809)" gradientUnits="userSpaceOnUse">
            <stop offset="0" stop-color="#ecfafe"/>
            <stop offset="1" stop-color="#aef5ff"/>
        </linearGradient>
        <linearGradient id="it" x1="21.31" x2="30.7" y1="10.99" y2="25.27" gradientTransform="rotate(-45 24 25.809)" gradientUnits="userSpaceOnUse">
            <stop offset="0" stop-color="#eafafe"/>
            <stop offset="1" stop-color="#a8f4ff"/>
        </linearGradient>
    </defs>
    <path fill="url(#ia)" d="M29.26 8.08c-6.03-6.03-15.91-5.85-21.71.52-5.13 5.64-5.14 14.49-.03 20.14 4.49 4.96 11.42 6.18 17.13 3.68.87-.38 1.88-.21 2.55.46l10.16 10.16c1.48 1.48 3.88 1.72 5.49.39a3.993 3.993 0 0 0 .29-5.92L32.86 27.23c-.67-.67-.84-1.67-.46-2.53 2.4-5.49 1.37-12.12-3.13-16.61Z"/>
    <path fill="url(#ib)" d="M29.1 8.24c-5.94-5.94-15.67-5.77-21.39.51-5.05 5.54-5.08 14.24-.06 19.81 4.45 4.95 11.36 6.14 17.02 3.61.87-.39 1.9-.22 2.58.46l10.22 10.22c1.39 1.39 3.65 1.62 5.17.38a3.778 3.778 0 0 0 .29-5.6L32.59 27.29c-.68-.68-.85-1.7-.46-2.58 2.42-5.43 1.42-12.01-3.03-16.46Z"/>
    <path fill="url(#ic)" d="M28.95 8.4c-5.85-5.85-15.43-5.68-21.06.5-4.96 5.44-5.01 13.99-.1 19.48 4.41 4.93 11.3 6.1 16.9 3.53.88-.41 1.92-.23 2.61.46l10.28 10.28c1.31 1.31 3.42 1.53 4.86.37a3.547 3.547 0 0 0 .28-5.28L32.33 27.35c-.69-.69-.86-1.74-.45-2.63 2.45-5.36 1.48-11.9-2.94-16.31Z"/>
    <path fill="url(#id)" d="M28.79 8.56C23.03 2.8 13.6 2.97 8.06 9.05 3.18 14.4 3.12 22.79 7.93 28.2c4.37 4.92 11.25 6.07 16.79 3.46.89-.42 1.95-.24 2.64.46L37.7 42.46c1.22 1.22 3.2 1.44 4.54.36a3.325 3.325 0 0 0 .28-4.96L32.08 27.42c-.71-.71-.86-1.77-.44-2.68 2.48-5.29 1.53-11.79-2.85-16.16Z"/>
    <path fill="url(#ie)" d="M28.63 8.71c-5.66-5.66-14.95-5.51-20.41.47-4.8 5.25-4.87 13.5-.16 18.82 4.33 4.91 11.19 6.03 16.68 3.38.9-.44 1.97-.25 2.68.46l10.39 10.39c1.13 1.13 2.97 1.34 4.23.35a3.11 3.11 0 0 0 .28-4.64L31.83 27.45c-.72-.72-.87-1.81-.43-2.73 2.5-5.23 1.58-11.68-2.75-16.02Z"/>
    <path fill="url(#if)" d="M28.48 8.87C22.91 3.3 13.77 3.45 8.4 9.33c-4.71 5.15-4.8 13.25-.2 18.5 4.29 4.9 11.13 6 16.57 3.31.9-.45 2-.26 2.71.46l10.45 10.45c1.05 1.05 2.74 1.25 3.91.34a2.888 2.888 0 0 0 .27-4.32L31.56 27.52c-.73-.73-.88-1.84-.42-2.77a13.836 13.836 0 0 0-2.66-15.87Z"/>
    <path fill="url(#ig)" d="M28.32 9.03c-5.48-5.48-14.47-5.33-19.76.45-4.63 5.06-4.73 13-.23 18.17 4.25 4.89 11.07 5.96 16.46 3.23.91-.46 2.02-.27 2.74.46l10.51 10.51c.96.96 2.52 1.16 3.59.32 1.3-1 1.39-2.88.27-4l-10.6-10.6c-.75-.75-.89-1.88-.42-2.82 2.54-5.1 1.69-11.46-2.57-15.72Z"/>
    <path fill="url(#ih)" d="M28.16 9.18c-5.39-5.39-14.22-5.25-19.43.44-4.54 4.96-4.66 12.75-.27 17.84 4.21 4.88 11.01 5.92 16.34 3.16.92-.48 2.05-.27 2.78.46l10.57 10.57c.88.88 2.29 1.06 3.28.31 1.21-.92 1.3-2.65.26-3.69L31.04 27.62c-.76-.76-.9-1.91-.41-2.87 2.56-5.04 1.74-11.35-2.47-15.57Z"/>
    <path fill="url(#ii)" d="M28 9.34c-5.3-5.3-13.98-5.16-19.11.42-4.46 4.86-4.6 12.5-.3 17.51a13.188 13.188 0 0 0 16.23 3.08c.92-.49 2.07-.28 2.81.46l10.62 10.62c.79.79 2.07.97 2.96.3 1.12-.83 1.21-2.42.26-3.37L30.76 27.65c-.77-.77-.9-1.95-.4-2.92 2.58-4.97 1.8-11.24-2.38-15.42Z"/>
    <path fill="url(#ij)" d="M27.85 9.5c-5.21-5.21-13.74-5.07-18.78.41-4.38 4.77-4.53 12.26-.33 17.18s10.89 5.85 16.12 3.01c.93-.51 2.09-.29 2.84.46l10.68 10.68c.7.7 1.84.88 2.65.29 1.03-.74 1.12-2.19.26-3.05L30.53 27.72c-.79-.79-.91-1.98-.39-2.97 2.6-4.91 1.85-11.13-2.29-15.27Z"/>
    <circle cx="18.65" cy="18.69" r="11" fill="url(#ik)"/>
    <circle cx="18.65" cy="18.69" r="10.67" fill="url(#il)"/>
    <circle cx="18.65" cy="18.69" r="10.33" fill="url(#im)"/>
    <circle cx="18.65" cy="18.69" r="10" fill="url(#in)"/>
    <circle cx="18.65" cy="18.69" r="9.67" fill="url(#io)"/>
    <circle cx="18.65" cy="18.69" r="9.33" fill="url(#ip)"/>
    <circle cx="18.65" cy="18.69" r="9" fill="url(#iq)"/>
    <circle cx="18.65" cy="18.69" r="8.67" fill="url(#ir)"/>
    <circle cx="18.65" cy="18.69" r="8.33" fill="url(#is)"/>
    <circle cx="18.65" cy="18.69" r="8" fill="url(#it)"/>
</svg><svg viewBox="0 0 64 64" id="slot" xmlns="http://www.w3.org/2000/svg">
    <path d="m46.09 35.65-2.52 6.8 2.52 7.29h2.17a1.9 1.9 0 0 0 1.9-1.9V37.55a1.9 1.9 0 0 0-1.9-1.9h-2.17Z" fill="#9fa9b6" fill-rule="evenodd"/>
    <path d="M46.09 30.53V57.1a1.9 1.9 0 0 1-1.9 1.9H7.78a1.9 1.9 0 0 1-1.9-1.9V30.53h40.21Z" fill="#8fd7f8" fill-rule="evenodd"/>
    <path d="M5.88 30.53v4.45c0 1.42 1.14 2.56 2.56 2.56h35.09c1.42 0 2.56-1.14 2.56-2.56v-4.45H5.88Z" fill="#75cdf8" fill-rule="evenodd"/>
    <path d="M8.44 5h35.09c1.42 0 2.56 1.14 2.56 2.56v22.97a2.55 2.55 0 0 1-2.56 2.55H8.44a2.55 2.55 0 0 1-2.56-2.55V7.56C5.88 6.14 7.02 5 8.44 5Z" fill="#9fa9b6" fill-rule="evenodd"/>
    <path d="M46.09 35.65c.96.1 1.71.91 1.71 1.9v10.29c0 .99-.75 1.8-1.71 1.89h2.17c1.05.01 1.9-.84 1.9-1.89V37.55a1.9 1.9 0 0 0-1.9-1.9h-2.17Z" fill="#8996a8" fill-rule="evenodd"/>
    <path d="M43.95 30.53V57.1a1.9 1.9 0 0 1-1.9 1.9h2.14a1.9 1.9 0 0 0 1.9-1.9V30.53h-2.14Z" fill="#75cdf8" fill-rule="evenodd"/>
    <path d="m31.56 8.78-2.77 9.86 2.77 10.67h11.16V8.78H31.56Zm-22.31 0v20.53h11.16l3.62-6.98-3.62-13.55H9.25Z" fill="#f0f3f5" fill-rule="evenodd"/>
    <path fill="#e4ecf0" d="M20.41 8.78h11.16v20.53H20.41z"/>
    <path d="M55.84 25.97c1.26 0 2.28 1.02 2.28 2.28v6.01c0 1.26-1.02 2.27-2.28 2.27s-2.28-1.01-2.28-2.27v-6.01c0-1.26 1.02-2.28 2.28-2.28Z" fill="#8996a8" fill-rule="evenodd"/>
    <path d="M12.7 50.94h10.2c1.1 0 1.98.88 1.98 1.98s-.88 1.97-1.98 1.97H12.7c-1.1 0-1.98-.88-1.98-1.97s.88-1.98 1.98-1.98Z" fill="#f0f3f5" fill-rule="evenodd"/>
    <path d="M19.62 50.94c1.1 0 1.98.88 1.98 1.98s-.88 1.97-1.98 1.97h3.27c1.1 0 1.98-.88 1.98-1.97s-.88-1.98-1.98-1.98h-3.27Z" fill="#e4ecf0" fill-rule="evenodd"/>
    <path d="M41.4 5c1.42 0 2.56 1.14 2.56 2.56v25.49a2.55 2.55 0 0 0 2.14-2.52V7.56C46.1 6.14 44.96 5 43.54 5H41.4Z" fill="#8996a8" fill-rule="evenodd"/>
    <path d="M10.73 33.08v11.81c0 1.26 1.01 2.28 2.28 2.28h9.59c1.26 0 2.28-1.02 2.28-2.28V33.08H10.73Z" fill="#f5e680" fill-rule="evenodd"/>
    <path fill="#f2d865" d="M10.73 33.08h14.15v4.46H10.73z"/>
    <path d="M47.09 7.56c0-1.96-1.6-3.56-3.56-3.56H8.44C6.48 4 4.88 5.6 4.88 7.56V57.1c0 1.6 1.3 2.9 2.9 2.9h36.41c1.6 0 2.9-1.3 2.9-2.9v-6.36h1.17c1.6 0 2.9-1.3 2.9-2.9v-2.73h2.35c1.84 0 3.34-1.49 3.34-3.33v-4.45c1.31-.43 2.28-1.62 2.28-3.07v-6.01c0-1.81-1.47-3.28-3.28-3.28s-3.28 1.47-3.28 3.28v6.01c0 1.45.97 2.64 2.28 3.07v4.45c0 .73-.6 1.33-1.34 1.33h-2.35v-5.56c0-1.6-1.3-2.9-2.9-2.9h-1.17V7.56Zm7.48 20.69c0-.71.57-1.28 1.28-1.28s1.28.57 1.28 1.28v6.01c0 .71-.56 1.27-1.28 1.27s-1.28-.56-1.28-1.27v-6.01ZM6.88 7.56c0-.86.7-1.56 1.56-1.56h35.09c.86 0 1.56.7 1.56 1.56v22.97c0 .85-.7 1.55-1.56 1.55H8.44c-.86 0-1.56-.7-1.56-1.55V7.56Zm4.85 26.52h12.15v10.81c0 .71-.57 1.28-1.28 1.28H13c-.7 0-1.28-.57-1.28-1.28V34.08ZM45.1 57.1c0 .5-.41.9-.9.9H7.78c-.5 0-.9-.4-.9-.9V33.68c.48.24.99.4 1.56.4h1.29v10.81c0 1.81 1.47 3.28 3.28 3.28h9.59c1.81 0 3.28-1.47 3.28-3.28V34.08h17.66c.57 0 1.08-.16 1.56-.4V57.1Zm3.17-20.45c.5 0 .9.4.9.9v10.29c0 .5-.4.9-.9.9H47.1V36.65h1.17Z"/>
    <path d="M9.25 30.31h33.47c.55 0 1-.45 1-1V8.78c0-.55-.45-1-1-1H9.25c-.55 0-1 .45-1 1v20.53c0 .55.45 1 1 1Zm32.47-2h-9.16V9.78h9.16v18.53ZM30.56 9.78v18.53H21.4V9.78h9.16Zm-20.31 0h9.16v18.53h-9.16V9.78Z"/>
    <path d="M17.47 15.71a.99.99 0 0 0-.93-.62h-4.16c-.55 0-1 .45-1 1s.45 1 1 1h2.08c-.8 1.2-1.64 2.94-1.64 4.9 0 .55.45 1 1 1s1-.45 1-1c0-2.77 2.39-5.16 2.42-5.19.29-.28.38-.72.23-1.09ZM23.91 17.09h2.08c-.8 1.2-1.64 2.94-1.64 4.9 0 .55.45 1 1 1s1-.45 1-1c0-2.77 2.39-5.16 2.42-5.19.29-.28.38-.72.23-1.09a.99.99 0 0 0-.93-.62h-4.16c-.55 0-1 .45-1 1s.45 1 1 1ZM35.42 17.09h2.08c-.8 1.2-1.64 2.94-1.64 4.9 0 .55.45 1 1 1s1-.45 1-1c0-2.77 2.4-5.16 2.42-5.19.29-.28.38-.72.23-1.09a.99.99 0 0 0-.93-.62h-4.16c-.55 0-1 .45-1 1s.45 1 1 1ZM22.9 49.94H12.7c-1.64 0-2.98 1.34-2.98 2.98s1.33 2.97 2.98 2.97h10.2c1.64 0 2.98-1.33 2.98-2.97s-1.33-2.98-2.98-2.98Zm0 3.95H12.7c-.54 0-.98-.44-.98-.97s.43-.98.98-.98h10.2c.55 0 .98.43.98.98s-.44.97-.98.97ZM21.44 42.43c.55 0 1-.45 1-1v-2.61c0-.55-.45-1-1-1s-1 .45-1 1v2.61c0 .55.45 1 1 1ZM33.71 49.52h6.54c.55 0 1-.45 1-1s-.45-1-1-1h-6.54c-.55 0-1 .45-1 1s.45 1 1 1ZM32.89 51.66l-.88 1.52a1.002 1.002 0 0 0 .87 1.5c.35 0 .68-.18.87-.5l.88-1.52c.28-.48.11-1.09-.37-1.37s-1.09-.11-1.37.37ZM36.29 51.66l-.88 1.52a1.002 1.002 0 0 0 .87 1.5c.35 0 .68-.18.87-.5l.88-1.52c.28-.48.11-1.09-.37-1.37s-1.09-.11-1.37.37ZM39.69 51.66l-.88 1.52a1.002 1.002 0 0 0 .87 1.5c.35 0 .68-.18.87-.5l.88-1.52c.28-.48.11-1.09-.37-1.37s-1.09-.11-1.37.37Z"/>
</svg><svg viewBox="0 0 240 240" id="telegram" xmlns="http://www.w3.org/2000/svg">
    <linearGradient id="ka" gradientUnits="userSpaceOnUse" x1="-683.305" y1="534.845" x2="-693.305" y2="511.512" gradientTransform="matrix(6 0 0 -6 4255 3247)">
        <stop offset="0" stop-color="#37aee2"/>
        <stop offset="1" stop-color="#1e96c8"/>
    </linearGradient>
    <path d="M240 120c0 66.3-53.7 120-120 120S0 186.3 0 120 53.7 0 120 0s120 53.7 120 120z" style="fill:url(#ka)"/>
    <path d="M98 175c-3.9 0-3.2-1.5-4.6-5.2L82 132.2 152.8 88l8.3 2.2-6.9 18.8L98 175z" style="fill:#c8daea"/>
    <path d="M98 175c3 0 4.3-1.4 6-3 2.6-2.5 36-35 36-35l-20.5-5-19 12-2.5 30v1z" style="fill:#a9c9dd"/>
    <linearGradient id="kb" gradientUnits="userSpaceOnUse" x1="128.991" y1="118.245" x2="153.991" y2="78.245" gradientTransform="matrix(1 0 0 -1 0 242)">
        <stop offset="0" stop-color="#eff7fc"/>
        <stop offset="1" stop-color="#fff"/>
    </linearGradient>
    <path d="m100 144.4 48.4 35.7c5.5 3 9.5 1.5 10.9-5.1L179 82.2c2-8.1-3.1-11.7-8.4-9.3L55 117.5c-7.9 3.2-7.8 7.6-1.4 9.5l29.7 9.3L152 93c3.2-2 6.2-.9 3.8 1.3L100 144.4z" style="fill:url(#kb)"/>
</svg><svg clip-rule="evenodd" fill-rule="evenodd" stroke-linejoin="round" stroke-miterlimit="2" viewBox="-89.009 -46.884 643.937 446.884" id="twitter" xmlns="http://www.w3.org/2000/svg">
    <path d="M154.729 400c185.669 0 287.205-153.876 287.205-287.312 0-4.37-.089-8.72-.286-13.052A205.304 205.304 0 0 0 492 47.346c-18.087 8.044-37.55 13.458-57.968 15.899 20.841-12.501 36.84-32.278 44.389-55.852a202.42 202.42 0 0 1-64.098 24.511C395.903 12.276 369.679 0 340.641 0c-55.744 0-100.948 45.222-100.948 100.965 0 7.925.887 15.631 2.619 23.025-83.895-4.223-158.287-44.405-208.074-105.504A100.739 100.739 0 0 0 20.57 69.24c0 35.034 17.82 65.961 44.92 84.055a100.172 100.172 0 0 1-45.716-12.63c-.015.424-.015.837-.015 1.29 0 48.903 34.794 89.734 80.982 98.986a101.036 101.036 0 0 1-26.617 3.553c-6.493 0-12.821-.639-18.971-1.82 12.851 40.122 50.115 69.319 94.296 70.135-34.549 27.089-78.07 43.224-125.371 43.224A204.9 204.9 0 0 1 0 354.634c44.674 28.645 97.72 45.359 154.734 45.359" fill="#1da1f2" fill-rule="nonzero"/>
</svg><svg viewBox="0 0 64 64" id="win" xmlns="http://www.w3.org/2000/svg">
    <rect fill="#f5e680" height="23.53" rx="2.17" ry="2.17" width="54" x="5" y="27.02"/>
    <path d="m40.57 27.02 1.76 1.8-.48 3.27c-.12.84.75 1.48 1.51 1.1l2.96-1.46 2.96 1.46c.76.38 1.63-.26 1.51-1.1l-.48-3.27 1.76-1.8h-11.5Zm-16.61 0-.17 1.18c-.17 1.2 1.07 2.1 2.15 1.56l3.71-1.83 3.71 1.83c1.08.54 2.33-.36 2.15-1.56l-.17-1.18H23.97Zm-16.74 0 1.76 1.8-.48 3.27c-.12.84.75 1.47 1.51 1.1l2.96-1.46 2.96 1.46c.76.38 1.63-.26 1.51-1.1l-.48-3.27 1.76-1.8H7.23Z" fill="#f2d865" fill-rule="evenodd"/>
    <path d="m33.33 14.26 1.92 3.66 4.08.7c1.19.2 1.67 1.66.82 2.53l-2.89 2.96.6 4.09c.18 1.2-1.07 2.1-2.15 1.56L32 27.93l-3.71 1.83c-1.09.54-2.33-.36-2.15-1.56l.6-4.09-2.89-2.96c-.85-.87-.37-2.33.82-2.53l4.08-.7 1.92-3.66c.56-1.07 2.1-1.07 2.66 0ZM16.26 21.2l1.53 2.92 3.25.55c.84.14 1.17 1.17.58 1.77l-2.31 2.36.48 3.27c.12.84-.75 1.47-1.51 1.1l-2.96-1.46-2.96 1.46c-.76.38-1.63-.26-1.51-1.1l.48-3.27-2.31-2.36a1.05 1.05 0 0 1 .58-1.77l3.25-.55 1.53-2.92a1.05 1.05 0 0 1 1.86 0ZM49.61 21.2l1.53 2.92 3.25.55c.84.14 1.17 1.17.58 1.77l-2.31 2.36.48 3.27c.12.84-.75 1.47-1.51 1.1l-2.96-1.46-2.96 1.46c-.76.38-1.63-.26-1.51-1.1l.48-3.27-2.31-2.36a1.05 1.05 0 0 1 .58-1.77l3.25-.55 1.53-2.92a1.05 1.05 0 0 1 1.86 0Z" fill="#ebb680" fill-rule="evenodd"/>
    <path d="M53.8 27.02c1.2 0 2.17.97 2.17 2.17v19.19c0 1.2-.97 2.17-2.17 2.17h3.03c1.2 0 2.17-.97 2.17-2.17v-19.2c0-1.2-.97-2.17-2.17-2.17H53.8Z" fill="#f2d865" fill-rule="evenodd"/>
    <path d="M48.67 20.64c-.39 0-.75.22-.93.56l-.35.66 1.18 2.26 3.26.56c.84.14 1.17 1.17.58 1.77l-2.31 2.36.48 3.27c.02.18 0 .37-.07.54l1.12.56c.76.38 1.63-.26 1.51-1.1l-.48-3.27 2.31-2.36c.59-.61.26-1.63-.58-1.77l-3.26-.56-1.53-2.92c-.18-.35-.54-.56-.93-.56Zm-33.35 0c-.39 0-.75.22-.93.56l-.35.66 1.18 2.26 3.26.56c.84.14 1.17 1.17.58 1.77l-2.31 2.36.48 3.27c.02.18 0 .37-.07.54l1.12.56c.76.38 1.63-.26 1.51-1.1l-.48-3.27 2.31-2.36c.59-.61.26-1.63-.58-1.77l-3.26-.56-1.53-2.92c-.18-.35-.54-.56-.93-.56Zm16.44-7.17c-.44.08-.82.34-1.05.73.02.02.03.04.05.06l1.92 3.66 4.08.69c1.19.2 1.67 1.66.82 2.53l-2.89 2.96.6 4.09c.06.43-.07.86-.35 1.19l.76.38c1.08.54 2.33-.36 2.15-1.56l-.6-4.09 2.89-2.96c.85-.87.37-2.33-.82-2.53l-4.08-.69-1.92-3.66c-.3-.57-.93-.89-1.56-.79Z" fill="#e6a361" fill-rule="evenodd"/>
    <path d="M56.83 26.02h-.62c.01-.1.06-.19.06-.29 0-1-.72-1.86-1.71-2.02l-2.77-.47-1.3-2.49c-.36-.68-1.05-1.1-1.82-1.1s-1.46.42-1.82 1.1l-1.3 2.49-2.77.47a2.05 2.05 0 0 0-1.71 2.02c0 .1.04.2.06.29h-2.59l-.23-1.57 2.54-2.6c.46-.47.71-1.09.71-1.75 0-1.22-.88-2.26-2.08-2.46l-3.59-.61-1.69-3.22c-.43-.83-1.28-1.34-2.22-1.34s-1.78.51-2.22 1.34l-1.69 3.22-3.59.61a2.493 2.493 0 0 0-2.08 2.47c0 .66.25 1.28.71 1.75l2.54 2.6-.23 1.57h-2.59c.01-.1.06-.19.06-.29 0-1-.72-1.86-1.71-2.02l-2.77-.47-1.3-2.49c-.36-.68-1.05-1.1-1.82-1.1s-1.46.42-1.82 1.1l-1.3 2.49-2.77.47a2.05 2.05 0 0 0-1.71 2.02c0 .1.04.2.06.29h-.62c-1.75 0-3.17 1.42-3.17 3.17v19.19c0 1.75 1.42 3.17 3.17 3.17h49.7c1.75 0 3.17-1.42 3.17-3.17V29.18c0-1.75-1.42-3.17-3.17-3.17Zm-10.46-.9c.31-.05.57-.24.72-.52l1.58-2.95s.04.01.05.03l1.53 2.92c.15.28.41.47.72.52l3.28.64-.54.55-1.77 1.81c-.22.22-.32.53-.27.84l.4 3.32-2.96-1.46c-.14-.07-.29-.1-.44-.1s-.3.03-.44.1l-3.04 1.41.48-3.27a.995.995 0 0 0-.27-.84l-2.28-2.45 3.25-.55Zm-21.81-4.67a.5.5 0 0 1 .28-.84l4.08-.7c.31-.05.57-.25.72-.52l1.92-3.66c.17-.33.71-.33.89 0l1.92 3.66c.15.28.41.47.72.52l4.08.7a.5.5 0 0 1 .28.84l-2.89 2.96c-.22.22-.32.54-.27.84l.6 4.17c0 .35-.41.61-.73.45l-3.71-1.83c-.14-.07-.29-.1-.44-.1s-.3.03-.44.1l-3.71 1.84c-.3.15-.72-.08-.72-.52l.6-4.09a.995.995 0 0 0-.27-.84l-2.89-2.96Zm-11.54 4.67c.31-.05.57-.25.72-.52l1.58-2.95s.04.01.05.03l1.53 2.93c.15.28.41.47.72.52l3.28.64-2.31 2.36c-.22.22-.32.54-.27.84l.4 3.32-2.96-1.46c-.14-.07-.29-.1-.44-.1s-.3.03-.44.1l-3.03 1.41.48-3.27a.995.995 0 0 0-.27-.84l-2.28-2.45 3.25-.55Zm44.97 23.26c0 .64-.52 1.17-1.17 1.17H7.17c-.64 0-1.17-.52-1.17-1.17v-19.2c0-.64.52-1.17 1.17-1.17h1.99l1.12 1.15-.41 2.77c-.02.1-.02.21-.02.31a2.053 2.053 0 0 0 2.96 1.84l2.52-1.25 2.51 1.24a2.053 2.053 0 0 0 2.96-1.84c0-.1 0-.19-.02-.3l-.41-2.78L21.49 28h3.66v.04c-.02.12-.03.24-.03.36a2.5 2.5 0 0 0 3.61 2.24l3.26-1.61 3.26 1.61a2.5 2.5 0 0 0 3.61-2.24c0-.12 0-.24-.03-.36v-.03h3.66l1.12 1.15-.41 2.79a2.053 2.053 0 0 0 2.94 2.13l2.52-1.25 2.51 1.24a2.053 2.053 0 0 0 2.96-1.84c0-.1 0-.21-.02-.3l-.41-2.78L54.82 28h1.99c.64 0 1.17.52 1.17 1.17v19.19Z"/>
    <path d="M18.38 36.46c-.55 0-1 .45-1 1v2.96l-1.24-1.37c-.38-.42-1.11-.42-1.48 0l-1.24 1.37v-2.96c0-.55-.45-1-1-1s-1 .45-1 1v5.56c0 .41.25.79.64.93.39.15.82.04 1.1-.26l2.24-2.48 2.24 2.48c.28.31.72.41 1.1.26.39-.15.64-.52.64-.93v-5.56c0-.55-.45-1-1-1ZM21.73 36.46c-.55 0-1 .45-1 1v5.56c0 .55.45 1 1 1s1-.45 1-1v-5.56c0-.55-.45-1-1-1ZM26.09 43.01v-2.77l2.81 3.41c.26.32.7.45 1.11.31.4-.14.66-.52.66-.94v-5.56c0-.55-.45-1-1-1s-1 .45-1 1v2.77l-2.81-3.41a1 1 0 0 0-1.11-.31c-.4.14-.66.52-.66.94v5.56c0 .55.45 1 1 1s1-.45 1-1ZM33.03 44.01c.55 0 1-.45 1-1v-2.77l2.81 3.41c.26.32.7.45 1.11.31.4-.14.66-.52.66-.94v-5.56c0-.55-.45-1-1-1s-1 .45-1 1v2.77l-2.81-3.41a1 1 0 0 0-1.11-.31c-.4.14-.66.52-.66.94v5.56c0 .55.45 1 1 1ZM43.82 38.46c.55 0 1-.45 1-1s-.45-1-1-1h-2.85c-.55 0-1 .45-1 1v5.56c0 .55.45 1 1 1h2.86c.55 0 1-.44 1-.99s-.45-1-1-1h-1.86v-.78h1.85c.55 0 1-.45 1-1s-.45-1-1-1h-1.86v-.78h1.85ZM52.58 39.31c0-1.57-1.28-2.86-2.85-2.86h-2.56c-.55 0-1 .45-1 1v5.56c0 .55.45 1 1 1s1-.45 1-1v-.85h1.15l1.56 1.52c.19.19.45.28.7.28s.52-.1.72-.3c.39-.4.38-1.03-.02-1.41l-.78-.76c.65-.52 1.08-1.29 1.08-2.18Zm-4.41-.86h1.56c.48 0 .85.38.85.86s-.38.85-.85.85h-1.56v-1.71ZM38.35 45.81h-12.7c-.55 0-1 .45-1 1s.45 1 1 1h12.7c.55 0 1-.45 1-1s-.45-1-1-1ZM16.93 45.81c-.27 0-.52.11-.71.29s-.29.44-.29.71a.99.99 0 0 0 1 1c.27 0 .52-.11.71-.29s.29-.44.29-.71-.11-.52-.29-.71a.99.99 0 0 0-.71-.29ZM21.08 45.81c-.26 0-.52.11-.71.29s-.29.44-.29.71.11.52.29.71c.19.19.44.29.71.29s.52-.11.71-.29c.19-.19.29-.44.29-.71a.99.99 0 0 0-1-1ZM42.92 45.81c-.27 0-.52.11-.71.29s-.29.44-.29.71a.99.99 0 0 0 1 1c.27 0 .52-.11.71-.29.19-.19.29-.44.29-.71a.99.99 0 0 0-1-1ZM47.07 45.81c-.27 0-.52.11-.71.29-.19.19-.29.44-.29.71s.11.52.29.71.44.29.71.29.52-.11.71-.29c.19-.19.29-.44.29-.71s-.11-.52-.29-.71-.44-.29-.71-.29Z"/>
</svg></svg>