<svg width="20" height="20" viewBox="0 0 20 20" fill="none" xmlns="http://www.w3.org/2000/svg">
<path d="M13.535 10.0003L19.2664 4.27372C19.7397 3.80233 20 3.17485 20 2.50804C20 1.84123 19.7397 1.21375 19.2664 0.741735C18.7957 0.270346 18.1663 0.0106141 17.4995 0.0106141C16.8321 0.0106141 16.204 0.270346 15.7314 0.741735L9.99875 6.46833L4.26672 0.741735C3.79472 0.269722 3.16664 0.00998974 2.49797 0.00998974C1.83118 0.00998974 1.2031 0.269722 0.7311 0.741735C-0.243489 1.71573 -0.244114 3.29972 0.7311 4.27372L6.46376 10.0003L0.731724 15.7269C-0.243489 16.7021 -0.243489 18.2861 0.731724 19.2595C1.20372 19.7309 1.83181 19.9906 2.49922 19.9906C3.16664 19.9906 3.79472 19.7309 4.26672 19.2589L9.99875 13.5323L15.7308 19.2583C16.2034 19.7297 16.8309 19.99 17.4977 19.99C18.1657 19.99 18.7938 19.7303 19.2658 19.2583C20.241 18.283 20.241 16.699 19.2658 15.7263L13.535 10.0003ZM18.3817 18.3754C17.9097 18.8468 17.0868 18.8474 16.6136 18.3754L10.4408 12.208C10.196 11.9627 9.80084 11.9627 9.55672 12.208L3.38266 18.376C2.91003 18.8474 2.08716 18.8474 1.61454 18.376C1.12755 17.889 1.12755 17.0967 1.61454 16.6097L7.7886 10.4417C7.90598 10.3244 7.97153 10.167 7.97153 10.0003C7.97153 9.83486 7.90598 9.67565 7.7886 9.55889L1.61391 3.39088C1.12693 2.90388 1.12693 2.11157 1.61391 1.62457C1.85054 1.38857 2.16458 1.2587 2.49797 1.2587C2.83262 1.2587 3.14603 1.38857 3.38266 1.62457L9.55672 7.79259C9.80084 8.03671 10.196 8.03671 10.4408 7.79259L16.6148 1.6252C17.0875 1.15319 17.9097 1.15319 18.383 1.62457C18.6183 1.86058 18.7488 2.17463 18.7488 2.50804C18.7488 2.84144 18.6183 3.15487 18.383 3.39088L12.2089 9.55889C11.9642 9.80302 11.9642 10.197 12.2089 10.4417L18.383 16.6091C18.87 17.0961 18.87 17.8878 18.3817 18.3754Z" fill="#45A29E"/>
</svg>
