<?xml version="1.0" encoding="iso-8859-1"?>
<!-- Generator: Adobe Illustrator 16.0.0, SVG Export Plug-In . SVG Version: 6.00 Build 0)  -->
<!DOCTYPE svg PUBLIC "-//W3C//DTD SVG 1.1//EN" "http://www.w3.org/Graphics/SVG/1.1/DTD/svg11.dtd">
<svg version="1.1" id="Capa_1" xmlns="http://www.w3.org/2000/svg" xmlns:xlink="http://www.w3.org/1999/xlink" x="0px" y="0px"
	 width="709.886px" height="709.886px" viewBox="0 0 709.886 709.886" style="enable-background:new 0 0 709.886 709.886;"
	 xml:space="preserve">
<g>
	<g>
		<path d="M650.686,323.626L431.282,21.972C421.301,8.217,405.165,0,388.115,0c-11.327,0-22.16,3.529-31.316,10.195
			c-23.768,17.279-29.045,50.684-11.766,74.467l196.606,270.317L345.027,625.218c-17.284,23.773-12.001,57.173,11.777,74.462
			c9.198,6.677,20.035,10.206,31.342,10.206c17.029,0,33.154-8.217,43.125-21.967l219.403-301.576
			C664.362,367.581,664.362,342.372,650.686,323.626z M633.803,374.039L414.379,675.635c-6.066,8.368-15.869,13.359-26.227,13.359
			c-6.87,0-13.469-2.15-19.07-6.218c-14.46-10.514-17.67-30.825-7.156-45.28l201.08-276.378c2.667-3.664,2.667-8.624,0-12.283
			L361.926,72.39c-10.514-14.471-7.304-34.793,7.156-45.307c5.57-4.056,12.153-6.202,19.033-6.202
			c10.378,0,20.197,4.996,26.269,13.364L633.809,335.92C642.124,347.321,642.124,362.632,633.803,374.039z"/>
		<path d="M364.771,323.626L145.352,21.978C135.381,8.217,119.25,0,102.201,0C90.873,0,80.046,3.529,70.89,10.195
			C47.122,27.469,41.838,60.869,59.112,84.668l196.606,270.312L59.107,625.218c-17.279,23.778-11.991,57.178,11.787,74.451
			c9.193,6.677,20.03,10.206,31.337,10.206c17.034,0,33.154-8.217,43.109-21.967l219.424-301.576
			C378.442,367.581,378.442,342.372,364.771,323.626z M347.883,374.039L128.438,675.641c-6.056,8.362-15.854,13.354-26.211,13.354
			c-6.87,0-13.463-2.151-19.064-6.218c-14.46-10.503-17.67-30.82-7.167-45.28l201.08-276.378c2.667-3.664,2.667-8.624,0-12.283
			L76,72.39c-10.508-14.476-7.292-34.798,7.173-45.312c5.57-4.051,12.147-6.196,19.033-6.196c10.373,0,20.182,4.99,26.248,13.364
			L347.888,335.92C356.204,347.321,356.204,362.632,347.883,374.039z"/>
	</g>
</g>
<g>
</g>
<g>
</g>
<g>
</g>
<g>
</g>
<g>
</g>
<g>
</g>
<g>
</g>
<g>
</g>
<g>
</g>
<g>
</g>
<g>
</g>
<g>
</g>
<g>
</g>
<g>
</g>
<g>
</g>
</svg>
