<svg width="20" height="20" viewBox="0 0 20 20" fill="none" xmlns="http://www.w3.org/2000/svg">
<path d="M10 20C8.02219 20 6.08879 19.4135 4.4443 18.3147C2.79981 17.2159 1.51809 15.6541 0.761209 13.8268C0.00433281 11.9996 -0.193701 9.98891 0.192152 8.0491C0.578004 6.10929 1.53041 4.32746 2.92894 2.92894C4.32746 1.53041 6.10929 0.578004 8.0491 0.192152C9.98891 -0.193701 11.9996 0.00433281 13.8268 0.761209C15.6541 1.51809 17.2159 2.79981 18.3147 4.4443C19.4135 6.08879 20 8.02219 20 10C19.9971 12.6513 18.9426 15.1931 17.0679 17.0679C15.1931 18.9426 12.6513 19.9971 10 20ZM10 0.625004C8.1458 0.625004 6.33324 1.17484 4.79153 2.20498C3.24982 3.23512 2.04821 4.69929 1.33863 6.41235C0.629062 8.1254 0.443406 10.0104 0.805142 11.829C1.16688 13.6475 2.05976 15.318 3.37088 16.6291C4.682 17.9402 6.35246 18.8331 8.17103 19.1949C9.98961 19.5566 11.8746 19.3709 13.5877 18.6614C15.3007 17.9518 16.7649 16.7502 17.795 15.2085C18.8252 13.6668 19.375 11.8542 19.375 10C19.3721 7.51449 18.3835 5.1316 16.6259 3.37408C14.8684 1.61655 12.4855 0.627899 10 0.625004Z" fill="#45A29E"/>
<path d="M14.8438 6.875H5.15625C5.07337 6.875 4.99388 6.84208 4.93528 6.78347C4.87667 6.72487 4.84375 6.64538 4.84375 6.5625C4.84375 6.47962 4.87667 6.40013 4.93528 6.34153C4.99388 6.28292 5.07337 6.25 5.15625 6.25H14.8438C14.9266 6.25 15.0061 6.28292 15.0647 6.34153C15.1233 6.40013 15.1562 6.47962 15.1562 6.5625C15.1562 6.64538 15.1233 6.72487 15.0647 6.78347C15.0061 6.84208 14.9266 6.875 14.8438 6.875Z" fill="#45A29E"/>
<path d="M14.8438 10.3125H5.15625C5.07337 10.3125 4.99388 10.2796 4.93528 10.221C4.87667 10.1624 4.84375 10.0829 4.84375 10C4.84375 9.91712 4.87667 9.83763 4.93528 9.77903C4.99388 9.72042 5.07337 9.6875 5.15625 9.6875H14.8438C14.9266 9.6875 15.0061 9.72042 15.0647 9.77903C15.1233 9.83763 15.1562 9.91712 15.1562 10C15.1562 10.0829 15.1233 10.1624 15.0647 10.221C15.0061 10.2796 14.9266 10.3125 14.8438 10.3125Z" fill="#45A29E"/>
<path d="M14.8438 13.75H5.15625C5.07337 13.75 4.99388 13.7171 4.93528 13.6585C4.87667 13.5999 4.84375 13.5204 4.84375 13.4375C4.84375 13.3546 4.87667 13.2751 4.93528 13.2165C4.99388 13.1579 5.07337 13.125 5.15625 13.125H14.8438C14.9266 13.125 15.0061 13.1579 15.0647 13.2165C15.1233 13.2751 15.1562 13.3546 15.1562 13.4375C15.1562 13.5204 15.1233 13.5999 15.0647 13.6585C15.0061 13.7171 14.9266 13.75 14.8438 13.75Z" fill="#45A29E"/>
</svg>
