<svg width="33" height="37" viewBox="0 0 33 37" fill="none" xmlns="http://www.w3.org/2000/svg">
<path d="M3.499 1.22563L31.0458 17.1297C32.1562 17.7708 32.1562 19.3741 31.0458 20.0152L3.499 35.9192C2.38857 36.5604 1 35.7588 1 34.4765V2.6684C1 1.3861 2.38786 0.584476 3.499 1.22563Z" fill="#45A29E"/>
<path d="M31.0458 17.1297L3.49902 1.22562C3.33284 1.13006 3.16097 1.07585 2.98838 1.04091L29.6194 16.4165C30.7298 17.0576 30.7298 18.6609 29.6194 19.302L2.07265 35.2061C1.82375 35.3494 1.56201 35.4114 1.30383 35.4207C1.77168 36.0897 2.70239 36.3785 3.49902 35.9192L31.0458 20.0152C32.1562 19.3741 32.1562 17.7708 31.0458 17.1297Z" fill="#45A29E"/>
<path d="M3.499 1.22563L31.0458 17.1297C32.1562 17.7708 32.1562 19.3741 31.0458 20.0152L3.499 35.9192C2.38857 36.5604 1 35.7588 1 34.4765V2.6684C1 1.3861 2.38786 0.584476 3.499 1.22563Z" stroke="#45A29E" stroke-miterlimit="10"/>
</svg>
